<?xml version="1.0" encoding="utf-8" standalone="no"?>
<!DOCTYPE svg PUBLIC "-//W3C//DTD SVG 1.1//EN"
  "http://www.w3.org/Graphics/SVG/1.1/DTD/svg11.dtd">
<svg xmlns:xlink="http://www.w3.org/1999/xlink" width="460.424062pt" height="454.862437pt" viewBox="0 0 460.424062 454.862437" xmlns="http://www.w3.org/2000/svg" version="1.1">
 <metadata>
  <rdf:RDF xmlns:dc="http://purl.org/dc/elements/1.1/" xmlns:cc="http://creativecommons.org/ns#" xmlns:rdf="http://www.w3.org/1999/02/22-rdf-syntax-ns#">
   <cc:Work>
    <dc:type rdf:resource="http://purl.org/dc/dcmitype/StillImage"/>
    <dc:date>2026-09-03T15:12:38.185524</dc:date>
    <dc:format>image/svg+xml</dc:format>
    <dc:creator>
     <cc:Agent>
      <dc:title>Matplotlib v3.11.1, https://matplotlib.org/</dc:title>
     </cc:Agent>
    </dc:creator>
   </cc:Work>
  </rdf:RDF>
 </metadata>
 <defs>
  <style type="text/css">*{stroke-linejoin: round; stroke-linecap: butt}</style>
 </defs>
 <g id="figure_1">
  <g id="patch_1">
   <path d="M 0 454.862437 
L 460.424062 454.862437 
L 460.424062 0 
L 0 0 
z
" style="fill: #ffffff"/>
  </g>
  <g id="axes_1">
   <g id="patch_2">
    <path d="M 50.466406 223.134828 
L 453.224062 223.134828 
L 453.224062 57.828 
L 50.466406 57.828 
z
" style="fill: #ffffff"/>
   </g>
   <g id="matplotlib.axis_1">
    <g id="xtick_1">
     <g id="line2d_1">
      <path d="M 105.392024 223.134828 
L 105.392024 57.828 
" clip-path="url(#pe6f7fbaafa)" style="fill: none; stroke: #b0b0b0; stroke-opacity: 0.25; stroke-width: 0.8; stroke-linecap: square"/>
     </g>
     <g id="line2d_2">
      <defs>
       <path id="mf0be2b28b9" d="M 0 0 
L 0 3.5 
" style="stroke: #000000; stroke-width: 0.8"/>
      </defs>
      <g>
       <use xlink:href="#mf0be2b28b9" x="105.392024" y="223.134828" style="stroke: #000000; stroke-width: 0.8"/>
      </g>
     </g>
    </g>
    <g id="xtick_2">
     <g id="line2d_3">
      <path d="M 187.773242 223.134828 
L 187.773242 57.828 
" clip-path="url(#pe6f7fbaafa)" style="fill: none; stroke: #b0b0b0; stroke-opacity: 0.25; stroke-width: 0.8; stroke-linecap: square"/>
     </g>
     <g id="line2d_4">
      <g>
       <use xlink:href="#mf0be2b28b9" x="187.773242" y="223.134828" style="stroke: #000000; stroke-width: 0.8"/>
      </g>
     </g>
    </g>
    <g id="xtick_3">
     <g id="line2d_5">
      <path d="M 270.15446 223.134828 
L 270.15446 57.828 
" clip-path="url(#pe6f7fbaafa)" style="fill: none; stroke: #b0b0b0; stroke-opacity: 0.25; stroke-width: 0.8; stroke-linecap: square"/>
     </g>
     <g id="line2d_6">
      <g>
       <use xlink:href="#mf0be2b28b9" x="270.15446" y="223.134828" style="stroke: #000000; stroke-width: 0.8"/>
      </g>
     </g>
    </g>
    <g id="xtick_4">
     <g id="line2d_7">
      <path d="M 352.535678 223.134828 
L 352.535678 57.828 
" clip-path="url(#pe6f7fbaafa)" style="fill: none; stroke: #b0b0b0; stroke-opacity: 0.25; stroke-width: 0.8; stroke-linecap: square"/>
     </g>
     <g id="line2d_8">
      <g>
       <use xlink:href="#mf0be2b28b9" x="352.535678" y="223.134828" style="stroke: #000000; stroke-width: 0.8"/>
      </g>
     </g>
    </g>
    <g id="xtick_5">
     <g id="line2d_9">
      <path d="M 434.916896 223.134828 
L 434.916896 57.828 
" clip-path="url(#pe6f7fbaafa)" style="fill: none; stroke: #b0b0b0; stroke-opacity: 0.25; stroke-width: 0.8; stroke-linecap: square"/>
     </g>
     <g id="line2d_10">
      <g>
       <use xlink:href="#mf0be2b28b9" x="434.916896" y="223.134828" style="stroke: #000000; stroke-width: 0.8"/>
      </g>
     </g>
    </g>
   </g>
   <g id="matplotlib.axis_2">
    <g id="ytick_1">
     <g id="line2d_11">
      <path d="M 50.466406 206.836934 
L 453.224062 206.836934 
" clip-path="url(#pe6f7fbaafa)" style="fill: none; stroke: #b0b0b0; stroke-opacity: 0.25; stroke-width: 0.8; stroke-linecap: square"/>
     </g>
     <g id="line2d_12">
      <defs>
       <path id="mce1901239e" d="M 0 0 
L -3.5 0 
" style="stroke: #000000; stroke-width: 0.8"/>
      </defs>
      <g>
       <use xlink:href="#mce1901239e" x="50.466406" y="206.836934" style="stroke: #000000; stroke-width: 0.8"/>
      </g>
     </g>
     <g id="text_1">
      <!-- 0.4 -->
      <g transform="translate(27.563281 210.635762) scale(0.1 -0.1)">
       <defs>
        <path id="DejaVuSans-13" d="M 2034 4250 
Q 1547 4250 1301 3770 
Q 1056 3291 1056 2328 
Q 1056 1369 1301 889 
Q 1547 409 2034 409 
Q 2525 409 2770 889 
Q 3016 1369 3016 2328 
Q 3016 3291 2770 3770 
Q 2525 4250 2034 4250 
z
M 2034 4750 
Q 2819 4750 3233 4129 
Q 3647 3509 3647 2328 
Q 3647 1150 3233 529 
Q 2819 -91 2034 -91 
Q 1250 -91 836 529 
Q 422 1150 422 2328 
Q 422 3509 836 4129 
Q 1250 4750 2034 4750 
z
" transform="scale(0.015625)"/>
        <path id="DejaVuSans-11" d="M 684 794 
L 1344 794 
L 1344 0 
L 684 0 
L 684 794 
z
" transform="scale(0.015625)"/>
        <path id="DejaVuSans-17" d="M 2419 4116 
L 825 1625 
L 2419 1625 
L 2419 4116 
z
M 2253 4666 
L 3047 4666 
L 3047 1625 
L 3713 1625 
L 3713 1100 
L 3047 1100 
L 3047 0 
L 2419 0 
L 2419 1100 
L 313 1100 
L 313 1709 
L 2253 4666 
z
" transform="scale(0.015625)"/>
       </defs>
       <use xlink:href="#DejaVuSans-13"/>
       <use xlink:href="#DejaVuSans-11" transform="translate(63.625 0)"/>
       <use xlink:href="#DejaVuSans-17" transform="translate(95.40625 0)"/>
      </g>
     </g>
    </g>
    <g id="ytick_2">
     <g id="line2d_13">
      <path d="M 50.466406 179.642049 
L 453.224062 179.642049 
" clip-path="url(#pe6f7fbaafa)" style="fill: none; stroke: #b0b0b0; stroke-opacity: 0.25; stroke-width: 0.8; stroke-linecap: square"/>
     </g>
     <g id="line2d_14">
      <g>
       <use xlink:href="#mce1901239e" x="50.466406" y="179.642049" style="stroke: #000000; stroke-width: 0.8"/>
      </g>
     </g>
     <g id="text_2">
      <!-- 0.5 -->
      <g transform="translate(27.563281 183.440877) scale(0.1 -0.1)">
       <defs>
        <path id="DejaVuSans-18" d="M 691 4666 
L 3169 4666 
L 3169 4134 
L 1269 4134 
L 1269 2991 
Q 1406 3038 1543 3061 
Q 1681 3084 1819 3084 
Q 2600 3084 3056 2656 
Q 3513 2228 3513 1497 
Q 3513 744 3044 326 
Q 2575 -91 1722 -91 
Q 1428 -91 1123 -41 
Q 819 9 494 109 
L 494 744 
Q 775 591 1075 516 
Q 1375 441 1709 441 
Q 2250 441 2565 725 
Q 2881 1009 2881 1497 
Q 2881 1984 2565 2268 
Q 2250 2553 1709 2553 
Q 1456 2553 1204 2497 
Q 953 2441 691 2322 
L 691 4666 
z
" transform="scale(0.015625)"/>
       </defs>
       <use xlink:href="#DejaVuSans-13"/>
       <use xlink:href="#DejaVuSans-11" transform="translate(63.625 0)"/>
       <use xlink:href="#DejaVuSans-18" transform="translate(95.40625 0)"/>
      </g>
     </g>
    </g>
    <g id="ytick_3">
     <g id="line2d_15">
      <path d="M 50.466406 152.447163 
L 453.224062 152.447163 
" clip-path="url(#pe6f7fbaafa)" style="fill: none; stroke: #b0b0b0; stroke-opacity: 0.25; stroke-width: 0.8; stroke-linecap: square"/>
     </g>
     <g id="line2d_16">
      <g>
       <use xlink:href="#mce1901239e" x="50.466406" y="152.447163" style="stroke: #000000; stroke-width: 0.8"/>
      </g>
     </g>
     <g id="text_3">
      <!-- 0.6 -->
      <g transform="translate(27.563281 156.245992) scale(0.1 -0.1)">
       <defs>
        <path id="DejaVuSans-19" d="M 2113 2584 
Q 1688 2584 1439 2293 
Q 1191 2003 1191 1497 
Q 1191 994 1439 701 
Q 1688 409 2113 409 
Q 2538 409 2786 701 
Q 3034 994 3034 1497 
Q 3034 2003 2786 2293 
Q 2538 2584 2113 2584 
z
M 3366 4563 
L 3366 3988 
Q 3128 4100 2886 4159 
Q 2644 4219 2406 4219 
Q 1781 4219 1451 3797 
Q 1122 3375 1075 2522 
Q 1259 2794 1537 2939 
Q 1816 3084 2150 3084 
Q 2853 3084 3261 2657 
Q 3669 2231 3669 1497 
Q 3669 778 3244 343 
Q 2819 -91 2113 -91 
Q 1303 -91 875 529 
Q 447 1150 447 2328 
Q 447 3434 972 4092 
Q 1497 4750 2381 4750 
Q 2619 4750 2861 4703 
Q 3103 4656 3366 4563 
z
" transform="scale(0.015625)"/>
       </defs>
       <use xlink:href="#DejaVuSans-13"/>
       <use xlink:href="#DejaVuSans-11" transform="translate(63.625 0)"/>
       <use xlink:href="#DejaVuSans-19" transform="translate(95.40625 0)"/>
      </g>
     </g>
    </g>
    <g id="ytick_4">
     <g id="line2d_17">
      <path d="M 50.466406 125.252278 
L 453.224062 125.252278 
" clip-path="url(#pe6f7fbaafa)" style="fill: none; stroke: #b0b0b0; stroke-opacity: 0.25; stroke-width: 0.8; stroke-linecap: square"/>
     </g>
     <g id="line2d_18">
      <g>
       <use xlink:href="#mce1901239e" x="50.466406" y="125.252278" style="stroke: #000000; stroke-width: 0.8"/>
      </g>
     </g>
     <g id="text_4">
      <!-- 0.7 -->
      <g transform="translate(27.563281 129.051107) scale(0.1 -0.1)">
       <defs>
        <path id="DejaVuSans-1a" d="M 525 4666 
L 3525 4666 
L 3525 4397 
L 1831 0 
L 1172 0 
L 2766 4134 
L 525 4134 
L 525 4666 
z
" transform="scale(0.015625)"/>
       </defs>
       <use xlink:href="#DejaVuSans-13"/>
       <use xlink:href="#DejaVuSans-11" transform="translate(63.625 0)"/>
       <use xlink:href="#DejaVuSans-1a" transform="translate(95.40625 0)"/>
      </g>
     </g>
    </g>
    <g id="ytick_5">
     <g id="line2d_19">
      <path d="M 50.466406 98.057393 
L 453.224062 98.057393 
" clip-path="url(#pe6f7fbaafa)" style="fill: none; stroke: #b0b0b0; stroke-opacity: 0.25; stroke-width: 0.8; stroke-linecap: square"/>
     </g>
     <g id="line2d_20">
      <g>
       <use xlink:href="#mce1901239e" x="50.466406" y="98.057393" style="stroke: #000000; stroke-width: 0.8"/>
      </g>
     </g>
     <g id="text_5">
      <!-- 0.8 -->
      <g transform="translate(27.563281 101.856222) scale(0.1 -0.1)">
       <defs>
        <path id="DejaVuSans-1b" d="M 2034 2216 
Q 1584 2216 1326 1975 
Q 1069 1734 1069 1313 
Q 1069 891 1326 650 
Q 1584 409 2034 409 
Q 2484 409 2743 651 
Q 3003 894 3003 1313 
Q 3003 1734 2745 1975 
Q 2488 2216 2034 2216 
z
M 1403 2484 
Q 997 2584 770 2862 
Q 544 3141 544 3541 
Q 544 4100 942 4425 
Q 1341 4750 2034 4750 
Q 2731 4750 3128 4425 
Q 3525 4100 3525 3541 
Q 3525 3141 3298 2862 
Q 3072 2584 2669 2484 
Q 3125 2378 3379 2068 
Q 3634 1759 3634 1313 
Q 3634 634 3220 271 
Q 2806 -91 2034 -91 
Q 1263 -91 848 271 
Q 434 634 434 1313 
Q 434 1759 690 2068 
Q 947 2378 1403 2484 
z
M 1172 3481 
Q 1172 3119 1398 2916 
Q 1625 2713 2034 2713 
Q 2441 2713 2670 2916 
Q 2900 3119 2900 3481 
Q 2900 3844 2670 4047 
Q 2441 4250 2034 4250 
Q 1625 4250 1398 4047 
Q 1172 3844 1172 3481 
z
" transform="scale(0.015625)"/>
       </defs>
       <use xlink:href="#DejaVuSans-13"/>
       <use xlink:href="#DejaVuSans-11" transform="translate(63.625 0)"/>
       <use xlink:href="#DejaVuSans-1b" transform="translate(95.40625 0)"/>
      </g>
     </g>
    </g>
    <g id="ytick_6">
     <g id="line2d_21">
      <path d="M 50.466406 70.862508 
L 453.224062 70.862508 
" clip-path="url(#pe6f7fbaafa)" style="fill: none; stroke: #b0b0b0; stroke-opacity: 0.25; stroke-width: 0.8; stroke-linecap: square"/>
     </g>
     <g id="line2d_22">
      <g>
       <use xlink:href="#mce1901239e" x="50.466406" y="70.862508" style="stroke: #000000; stroke-width: 0.8"/>
      </g>
     </g>
     <g id="text_6">
      <!-- 0.9 -->
      <g transform="translate(27.563281 74.661337) scale(0.1 -0.1)">
       <defs>
        <path id="DejaVuSans-1c" d="M 703 97 
L 703 672 
Q 941 559 1184 500 
Q 1428 441 1663 441 
Q 2288 441 2617 861 
Q 2947 1281 2994 2138 
Q 2813 1869 2534 1725 
Q 2256 1581 1919 1581 
Q 1219 1581 811 2004 
Q 403 2428 403 3163 
Q 403 3881 828 4315 
Q 1253 4750 1959 4750 
Q 2769 4750 3195 4129 
Q 3622 3509 3622 2328 
Q 3622 1225 3098 567 
Q 2575 -91 1691 -91 
Q 1453 -91 1209 -44 
Q 966 3 703 97 
z
M 1959 2075 
Q 2384 2075 2632 2365 
Q 2881 2656 2881 3163 
Q 2881 3666 2632 3958 
Q 2384 4250 1959 4250 
Q 1534 4250 1286 3958 
Q 1038 3666 1038 3163 
Q 1038 2656 1286 2365 
Q 1534 2075 1959 2075 
z
" transform="scale(0.015625)"/>
       </defs>
       <use xlink:href="#DejaVuSans-13"/>
       <use xlink:href="#DejaVuSans-11" transform="translate(63.625 0)"/>
       <use xlink:href="#DejaVuSans-1c" transform="translate(95.40625 0)"/>
      </g>
     </g>
    </g>
    <g id="text_7">
     <!-- semantic top-1 -->
     <g transform="translate(21.160938 178.132195) rotate(-90) scale(0.1 -0.1)">
      <defs>
       <path id="DejaVuSans-56" d="M 2834 3397 
L 2834 2853 
Q 2591 2978 2328 3040 
Q 2066 3103 1784 3103 
Q 1356 3103 1142 2972 
Q 928 2841 928 2578 
Q 928 2378 1081 2264 
Q 1234 2150 1697 2047 
L 1894 2003 
Q 2506 1872 2764 1633 
Q 3022 1394 3022 966 
Q 3022 478 2636 193 
Q 2250 -91 1575 -91 
Q 1294 -91 989 -36 
Q 684 19 347 128 
L 347 722 
Q 666 556 975 473 
Q 1284 391 1588 391 
Q 1994 391 2212 530 
Q 2431 669 2431 922 
Q 2431 1156 2273 1281 
Q 2116 1406 1581 1522 
L 1381 1569 
Q 847 1681 609 1914 
Q 372 2147 372 2553 
Q 372 3047 722 3315 
Q 1072 3584 1716 3584 
Q 2034 3584 2315 3537 
Q 2597 3491 2834 3397 
z
" transform="scale(0.015625)"/>
       <path id="DejaVuSans-48" d="M 3597 1894 
L 3597 1613 
L 953 1613 
Q 991 1019 1311 708 
Q 1631 397 2203 397 
Q 2534 397 2845 478 
Q 3156 559 3463 722 
L 3463 178 
Q 3153 47 2828 -22 
Q 2503 -91 2169 -91 
Q 1331 -91 842 396 
Q 353 884 353 1716 
Q 353 2575 817 3079 
Q 1281 3584 2069 3584 
Q 2775 3584 3186 3129 
Q 3597 2675 3597 1894 
z
M 3022 2063 
Q 3016 2534 2758 2815 
Q 2500 3097 2075 3097 
Q 1594 3097 1305 2825 
Q 1016 2553 972 2059 
L 3022 2063 
z
" transform="scale(0.015625)"/>
       <path id="DejaVuSans-50" d="M 3328 2828 
Q 3544 3216 3844 3400 
Q 4144 3584 4550 3584 
Q 5097 3584 5394 3201 
Q 5691 2819 5691 2113 
L 5691 0 
L 5113 0 
L 5113 2094 
Q 5113 2597 4934 2840 
Q 4756 3084 4391 3084 
Q 3944 3084 3684 2787 
Q 3425 2491 3425 1978 
L 3425 0 
L 2847 0 
L 2847 2094 
Q 2847 2600 2669 2842 
Q 2491 3084 2119 3084 
Q 1678 3084 1418 2786 
Q 1159 2488 1159 1978 
L 1159 0 
L 581 0 
L 581 3500 
L 1159 3500 
L 1159 2956 
Q 1356 3278 1631 3431 
Q 1906 3584 2284 3584 
Q 2666 3584 2933 3390 
Q 3200 3197 3328 2828 
z
" transform="scale(0.015625)"/>
       <path id="DejaVuSans-44" d="M 2194 1759 
Q 1497 1759 1228 1600 
Q 959 1441 959 1056 
Q 959 750 1161 570 
Q 1363 391 1709 391 
Q 2188 391 2477 730 
Q 2766 1069 2766 1631 
L 2766 1759 
L 2194 1759 
z
M 3341 1997 
L 3341 0 
L 2766 0 
L 2766 531 
Q 2569 213 2275 61 
Q 1981 -91 1556 -91 
Q 1019 -91 701 211 
Q 384 513 384 1019 
Q 384 1609 779 1909 
Q 1175 2209 1959 2209 
L 2766 2209 
L 2766 2266 
Q 2766 2663 2505 2880 
Q 2244 3097 1772 3097 
Q 1472 3097 1187 3025 
Q 903 2953 641 2809 
L 641 3341 
Q 956 3463 1253 3523 
Q 1550 3584 1831 3584 
Q 2591 3584 2966 3190 
Q 3341 2797 3341 1997 
z
" transform="scale(0.015625)"/>
       <path id="DejaVuSans-51" d="M 3513 2113 
L 3513 0 
L 2938 0 
L 2938 2094 
Q 2938 2591 2744 2837 
Q 2550 3084 2163 3084 
Q 1697 3084 1428 2787 
Q 1159 2491 1159 1978 
L 1159 0 
L 581 0 
L 581 3500 
L 1159 3500 
L 1159 2956 
Q 1366 3272 1645 3428 
Q 1925 3584 2291 3584 
Q 2894 3584 3203 3211 
Q 3513 2838 3513 2113 
z
" transform="scale(0.015625)"/>
       <path id="DejaVuSans-57" d="M 1172 4494 
L 1172 3500 
L 2356 3500 
L 2356 3053 
L 1172 3053 
L 1172 1153 
Q 1172 725 1289 603 
Q 1406 481 1766 481 
L 2356 481 
L 2356 0 
L 1766 0 
Q 1100 0 847 248 
Q 594 497 594 1153 
L 594 3053 
L 172 3053 
L 172 3500 
L 594 3500 
L 594 4494 
L 1172 4494 
z
" transform="scale(0.015625)"/>
       <path id="DejaVuSans-4c" d="M 603 3500 
L 1178 3500 
L 1178 0 
L 603 0 
L 603 3500 
z
M 603 4863 
L 1178 4863 
L 1178 4134 
L 603 4134 
L 603 4863 
z
" transform="scale(0.015625)"/>
       <path id="DejaVuSans-46" d="M 3122 3366 
L 3122 2828 
Q 2878 2963 2633 3030 
Q 2388 3097 2138 3097 
Q 1578 3097 1268 2742 
Q 959 2388 959 1747 
Q 959 1106 1268 751 
Q 1578 397 2138 397 
Q 2388 397 2633 464 
Q 2878 531 3122 666 
L 3122 134 
Q 2881 22 2623 -34 
Q 2366 -91 2075 -91 
Q 1284 -91 818 406 
Q 353 903 353 1747 
Q 353 2603 823 3093 
Q 1294 3584 2113 3584 
Q 2378 3584 2631 3529 
Q 2884 3475 3122 3366 
z
" transform="scale(0.015625)"/>
       <path id="DejaVuSans-3" transform="scale(0.015625)"/>
       <path id="DejaVuSans-52" d="M 1959 3097 
Q 1497 3097 1228 2736 
Q 959 2375 959 1747 
Q 959 1119 1226 758 
Q 1494 397 1959 397 
Q 2419 397 2687 759 
Q 2956 1122 2956 1747 
Q 2956 2369 2687 2733 
Q 2419 3097 1959 3097 
z
M 1959 3584 
Q 2709 3584 3137 3096 
Q 3566 2609 3566 1747 
Q 3566 888 3137 398 
Q 2709 -91 1959 -91 
Q 1206 -91 779 398 
Q 353 888 353 1747 
Q 353 2609 779 3096 
Q 1206 3584 1959 3584 
z
" transform="scale(0.015625)"/>
       <path id="DejaVuSans-53" d="M 1159 525 
L 1159 -1331 
L 581 -1331 
L 581 3500 
L 1159 3500 
L 1159 2969 
Q 1341 3281 1617 3432 
Q 1894 3584 2278 3584 
Q 2916 3584 3314 3078 
Q 3713 2572 3713 1747 
Q 3713 922 3314 415 
Q 2916 -91 2278 -91 
Q 1894 -91 1617 61 
Q 1341 213 1159 525 
z
M 3116 1747 
Q 3116 2381 2855 2742 
Q 2594 3103 2138 3103 
Q 1681 3103 1420 2742 
Q 1159 2381 1159 1747 
Q 1159 1113 1420 752 
Q 1681 391 2138 391 
Q 2594 391 2855 752 
Q 3116 1113 3116 1747 
z
" transform="scale(0.015625)"/>
       <path id="DejaVuSans-10" d="M 313 2009 
L 1997 2009 
L 1997 1497 
L 313 1497 
L 313 2009 
z
" transform="scale(0.015625)"/>
       <path id="DejaVuSans-14" d="M 794 531 
L 1825 531 
L 1825 4091 
L 703 3866 
L 703 4441 
L 1819 4666 
L 2450 4666 
L 2450 531 
L 3481 531 
L 3481 0 
L 794 0 
L 794 531 
z
" transform="scale(0.015625)"/>
      </defs>
      <use xlink:href="#DejaVuSans-56"/>
      <use xlink:href="#DejaVuSans-48" transform="translate(52.09375 0)"/>
      <use xlink:href="#DejaVuSans-50" transform="translate(113.625 0)"/>
      <use xlink:href="#DejaVuSans-44" transform="translate(211.03125 0)"/>
      <use xlink:href="#DejaVuSans-51" transform="translate(272.3125 0)"/>
      <use xlink:href="#DejaVuSans-57" transform="translate(335.6875 0)"/>
      <use xlink:href="#DejaVuSans-4c" transform="translate(374.890625 0)"/>
      <use xlink:href="#DejaVuSans-46" transform="translate(402.671875 0)"/>
      <use xlink:href="#DejaVuSans-3" transform="translate(457.65625 0)"/>
      <use xlink:href="#DejaVuSans-57" transform="translate(489.4375 0)"/>
      <use xlink:href="#DejaVuSans-52" transform="translate(528.640625 0)"/>
      <use xlink:href="#DejaVuSans-53" transform="translate(589.828125 0)"/>
      <use xlink:href="#DejaVuSans-10" transform="translate(653.3125 0)"/>
      <use xlink:href="#DejaVuSans-14" transform="translate(689.390625 0)"/>
     </g>
    </g>
   </g>
   <g id="line2d_23">
    <path d="M 74.499067 215.620881 
L 125.987328 187.365396 
L 177.47559 162.998779 
L 228.963851 129.956994 
L 280.452112 108.146696 
L 331.940374 92.373662 
L 383.428635 78.585856 
L 434.916896 68.714112 
" clip-path="url(#pe6f7fbaafa)" style="fill: none; stroke: #1f77b4; stroke-width: 1.5; stroke-linecap: square"/>
    <defs>
     <path id="mdd8ecf881a" d="M 0 1.5 
C 0.397805 1.5 0.77937 1.341951 1.06066 1.06066 
C 1.341951 0.77937 1.5 0.397805 1.5 0 
C 1.5 -0.397805 1.341951 -0.77937 1.06066 -1.06066 
C 0.77937 -1.341951 0.397805 -1.5 0 -1.5 
C -0.397805 -1.5 -0.77937 -1.341951 -1.06066 -1.06066 
C -1.341951 -0.77937 -1.5 -0.397805 -1.5 0 
C -1.5 0.397805 -1.341951 0.77937 -1.06066 1.06066 
C -0.77937 1.341951 -0.397805 1.5 0 1.5 
z
" style="stroke: #1f77b4"/>
    </defs>
    <g clip-path="url(#pe6f7fbaafa)">
     <use xlink:href="#mdd8ecf881a" x="74.499067" y="215.620881" style="fill: #1f77b4; stroke: #1f77b4"/>
     <use xlink:href="#mdd8ecf881a" x="125.987328" y="187.365396" style="fill: #1f77b4; stroke: #1f77b4"/>
     <use xlink:href="#mdd8ecf881a" x="177.47559" y="162.998779" style="fill: #1f77b4; stroke: #1f77b4"/>
     <use xlink:href="#mdd8ecf881a" x="228.963851" y="129.956994" style="fill: #1f77b4; stroke: #1f77b4"/>
     <use xlink:href="#mdd8ecf881a" x="280.452112" y="108.146696" style="fill: #1f77b4; stroke: #1f77b4"/>
     <use xlink:href="#mdd8ecf881a" x="331.940374" y="92.373662" style="fill: #1f77b4; stroke: #1f77b4"/>
     <use xlink:href="#mdd8ecf881a" x="383.428635" y="78.585856" style="fill: #1f77b4; stroke: #1f77b4"/>
     <use xlink:href="#mdd8ecf881a" x="434.916896" y="68.714112" style="fill: #1f77b4; stroke: #1f77b4"/>
    </g>
   </g>
   <g id="line2d_24">
    <path d="M 68.773572 189.540987 
L 129.818055 138.169849 
L 175.580822 117.012228 
L 236.584114 89.273446 
L 282.34688 77.49806 
L 328.109647 71.324821 
L 389.15413 67.381563 
L 434.916896 66.456937 
" clip-path="url(#pe6f7fbaafa)" style="fill: none; stroke: #ff7f0e; stroke-width: 1.5; stroke-linecap: square"/>
    <defs>
     <path id="ma8ee0bf064" d="M 0 1.5 
C 0.397805 1.5 0.77937 1.341951 1.06066 1.06066 
C 1.341951 0.77937 1.5 0.397805 1.5 0 
C 1.5 -0.397805 1.341951 -0.77937 1.06066 -1.06066 
C 0.77937 -1.341951 0.397805 -1.5 0 -1.5 
C -0.397805 -1.5 -0.77937 -1.341951 -1.06066 -1.06066 
C -1.341951 -0.77937 -1.5 -0.397805 -1.5 0 
C -1.5 0.397805 -1.341951 0.77937 -1.06066 1.06066 
C -0.77937 1.341951 -0.397805 1.5 0 1.5 
z
" style="stroke: #ff7f0e"/>
    </defs>
    <g clip-path="url(#pe6f7fbaafa)">
     <use xlink:href="#ma8ee0bf064" x="68.773572" y="189.540987" style="fill: #ff7f0e; stroke: #ff7f0e"/>
     <use xlink:href="#ma8ee0bf064" x="129.818055" y="138.169849" style="fill: #ff7f0e; stroke: #ff7f0e"/>
     <use xlink:href="#ma8ee0bf064" x="175.580822" y="117.012228" style="fill: #ff7f0e; stroke: #ff7f0e"/>
     <use xlink:href="#ma8ee0bf064" x="236.584114" y="89.273446" style="fill: #ff7f0e; stroke: #ff7f0e"/>
     <use xlink:href="#ma8ee0bf064" x="282.34688" y="77.49806" style="fill: #ff7f0e; stroke: #ff7f0e"/>
     <use xlink:href="#ma8ee0bf064" x="328.109647" y="71.324821" style="fill: #ff7f0e; stroke: #ff7f0e"/>
     <use xlink:href="#ma8ee0bf064" x="389.15413" y="67.381563" style="fill: #ff7f0e; stroke: #ff7f0e"/>
     <use xlink:href="#ma8ee0bf064" x="434.916896" y="66.456937" style="fill: #ff7f0e; stroke: #ff7f0e"/>
    </g>
   </g>
   <g id="line2d_25">
    <path d="M 72.439537 205.395605 
L 121.868268 180.702649 
L 179.53512 164.385718 
L 228.963851 137.000469 
L 278.392582 109.45205 
L 336.059435 81.985216 
L 385.488165 70.073857 
L 434.916896 65.341947 
" clip-path="url(#pe6f7fbaafa)" style="fill: none; stroke: #2ca02c; stroke-width: 1.5; stroke-linecap: square"/>
    <defs>
     <path id="m7a697558b2" d="M 0 1.5 
C 0.397805 1.5 0.77937 1.341951 1.06066 1.06066 
C 1.341951 0.77937 1.5 0.397805 1.5 0 
C 1.5 -0.397805 1.341951 -0.77937 1.06066 -1.06066 
C 0.77937 -1.341951 0.397805 -1.5 0 -1.5 
C -0.397805 -1.5 -0.77937 -1.341951 -1.06066 -1.06066 
C -1.341951 -0.77937 -1.5 -0.397805 -1.5 0 
C -1.5 0.397805 -1.341951 0.77937 -1.06066 1.06066 
C -0.77937 1.341951 -0.397805 1.5 0 1.5 
z
" style="stroke: #2ca02c"/>
    </defs>
    <g clip-path="url(#pe6f7fbaafa)">
     <use xlink:href="#m7a697558b2" x="72.439537" y="205.395605" style="fill: #2ca02c; stroke: #2ca02c"/>
     <use xlink:href="#m7a697558b2" x="121.868268" y="180.702649" style="fill: #2ca02c; stroke: #2ca02c"/>
     <use xlink:href="#m7a697558b2" x="179.53512" y="164.385718" style="fill: #2ca02c; stroke: #2ca02c"/>
     <use xlink:href="#m7a697558b2" x="228.963851" y="137.000469" style="fill: #2ca02c; stroke: #2ca02c"/>
     <use xlink:href="#m7a697558b2" x="278.392582" y="109.45205" style="fill: #2ca02c; stroke: #2ca02c"/>
     <use xlink:href="#m7a697558b2" x="336.059435" y="81.985216" style="fill: #2ca02c; stroke: #2ca02c"/>
     <use xlink:href="#m7a697558b2" x="385.488165" y="70.073857" style="fill: #2ca02c; stroke: #2ca02c"/>
     <use xlink:href="#m7a697558b2" x="434.916896" y="65.341947" style="fill: #2ca02c; stroke: #2ca02c"/>
    </g>
   </g>
   <g id="line2d_26">
    <path d="M 68.773572 198.433714 
L 129.818055 149.238167 
L 175.580822 127.21031 
L 236.584114 95.31071 
L 282.34688 81.930827 
L 328.109647 77.144527 
L 389.15413 76.029537 
L 434.916896 73.826751 
" clip-path="url(#pe6f7fbaafa)" style="fill: none; stroke: #d62728; stroke-width: 1.5; stroke-linecap: square"/>
    <defs>
     <path id="m3aed71a4fc" d="M 0 1.5 
C 0.397805 1.5 0.77937 1.341951 1.06066 1.06066 
C 1.341951 0.77937 1.5 0.397805 1.5 0 
C 1.5 -0.397805 1.341951 -0.77937 1.06066 -1.06066 
C 0.77937 -1.341951 0.397805 -1.5 0 -1.5 
C -0.397805 -1.5 -0.77937 -1.341951 -1.06066 -1.06066 
C -1.341951 -0.77937 -1.5 -0.397805 -1.5 0 
C -1.5 0.397805 -1.341951 0.77937 -1.06066 1.06066 
C -0.77937 1.341951 -0.397805 1.5 0 1.5 
z
" style="stroke: #d62728"/>
    </defs>
    <g clip-path="url(#pe6f7fbaafa)">
     <use xlink:href="#m3aed71a4fc" x="68.773572" y="198.433714" style="fill: #d62728; stroke: #d62728"/>
     <use xlink:href="#m3aed71a4fc" x="129.818055" y="149.238167" style="fill: #d62728; stroke: #d62728"/>
     <use xlink:href="#m3aed71a4fc" x="175.580822" y="127.21031" style="fill: #d62728; stroke: #d62728"/>
     <use xlink:href="#m3aed71a4fc" x="236.584114" y="95.31071" style="fill: #d62728; stroke: #d62728"/>
     <use xlink:href="#m3aed71a4fc" x="282.34688" y="81.930827" style="fill: #d62728; stroke: #d62728"/>
     <use xlink:href="#m3aed71a4fc" x="328.109647" y="77.144527" style="fill: #d62728; stroke: #d62728"/>
     <use xlink:href="#m3aed71a4fc" x="389.15413" y="76.029537" style="fill: #d62728; stroke: #d62728"/>
     <use xlink:href="#m3aed71a4fc" x="434.916896" y="73.826751" style="fill: #d62728; stroke: #d62728"/>
    </g>
   </g>
   <g id="line2d_27">
    <path d="M 68.773572 188.752335 
L 129.818055 141.841158 
L 175.580822 117.012228 
L 236.584114 94.522058 
L 282.34688 81.794852 
L 328.109647 75.648808 
L 389.15413 76.301485 
L 434.916896 76.573434 
" clip-path="url(#pe6f7fbaafa)" style="fill: none; stroke: #9467bd; stroke-width: 1.5; stroke-linecap: square"/>
    <defs>
     <path id="m96917872d8" d="M 0 1.5 
C 0.397805 1.5 0.77937 1.341951 1.06066 1.06066 
C 1.341951 0.77937 1.5 0.397805 1.5 0 
C 1.5 -0.397805 1.341951 -0.77937 1.06066 -1.06066 
C 0.77937 -1.341951 0.397805 -1.5 0 -1.5 
C -0.397805 -1.5 -0.77937 -1.341951 -1.06066 -1.06066 
C -1.341951 -0.77937 -1.5 -0.397805 -1.5 0 
C -1.5 0.397805 -1.341951 0.77937 -1.06066 1.06066 
C -0.77937 1.341951 -0.397805 1.5 0 1.5 
z
" style="stroke: #9467bd"/>
    </defs>
    <g clip-path="url(#pe6f7fbaafa)">
     <use xlink:href="#m96917872d8" x="68.773572" y="188.752335" style="fill: #9467bd; stroke: #9467bd"/>
     <use xlink:href="#m96917872d8" x="129.818055" y="141.841158" style="fill: #9467bd; stroke: #9467bd"/>
     <use xlink:href="#m96917872d8" x="175.580822" y="117.012228" style="fill: #9467bd; stroke: #9467bd"/>
     <use xlink:href="#m96917872d8" x="236.584114" y="94.522058" style="fill: #9467bd; stroke: #9467bd"/>
     <use xlink:href="#m96917872d8" x="282.34688" y="81.794852" style="fill: #9467bd; stroke: #9467bd"/>
     <use xlink:href="#m96917872d8" x="328.109647" y="75.648808" style="fill: #9467bd; stroke: #9467bd"/>
     <use xlink:href="#m96917872d8" x="389.15413" y="76.301485" style="fill: #9467bd; stroke: #9467bd"/>
     <use xlink:href="#m96917872d8" x="434.916896" y="76.573434" style="fill: #9467bd; stroke: #9467bd"/>
    </g>
   </g>
   <g id="line2d_28">
    <path d="M 68.773572 210.780192 
L 129.818055 171.510778 
L 175.580822 151.740096 
L 236.584114 121.988892 
L 282.34688 108.744983 
L 328.109647 97.486301 
L 389.15413 91.177088 
L 434.916896 88.104066 
" clip-path="url(#pe6f7fbaafa)" style="fill: none; stroke: #8c564b; stroke-width: 1.5; stroke-linecap: square"/>
    <defs>
     <path id="m09eeabdeb5" d="M 0 1.5 
C 0.397805 1.5 0.77937 1.341951 1.06066 1.06066 
C 1.341951 0.77937 1.5 0.397805 1.5 0 
C 1.5 -0.397805 1.341951 -0.77937 1.06066 -1.06066 
C 0.77937 -1.341951 0.397805 -1.5 0 -1.5 
C -0.397805 -1.5 -0.77937 -1.341951 -1.06066 -1.06066 
C -1.341951 -0.77937 -1.5 -0.397805 -1.5 0 
C -1.5 0.397805 -1.341951 0.77937 -1.06066 1.06066 
C -0.77937 1.341951 -0.397805 1.5 0 1.5 
z
" style="stroke: #8c564b"/>
    </defs>
    <g clip-path="url(#pe6f7fbaafa)">
     <use xlink:href="#m09eeabdeb5" x="68.773572" y="210.780192" style="fill: #8c564b; stroke: #8c564b"/>
     <use xlink:href="#m09eeabdeb5" x="129.818055" y="171.510778" style="fill: #8c564b; stroke: #8c564b"/>
     <use xlink:href="#m09eeabdeb5" x="175.580822" y="151.740096" style="fill: #8c564b; stroke: #8c564b"/>
     <use xlink:href="#m09eeabdeb5" x="236.584114" y="121.988892" style="fill: #8c564b; stroke: #8c564b"/>
     <use xlink:href="#m09eeabdeb5" x="282.34688" y="108.744983" style="fill: #8c564b; stroke: #8c564b"/>
     <use xlink:href="#m09eeabdeb5" x="328.109647" y="97.486301" style="fill: #8c564b; stroke: #8c564b"/>
     <use xlink:href="#m09eeabdeb5" x="389.15413" y="91.177088" style="fill: #8c564b; stroke: #8c564b"/>
     <use xlink:href="#m09eeabdeb5" x="434.916896" y="88.104066" style="fill: #8c564b; stroke: #8c564b"/>
    </g>
   </g>
   <g id="patch_3">
    <path d="M 50.466406 223.134828 
L 50.466406 57.828 
" style="fill: none; stroke: #000000; stroke-width: 0.8; stroke-linejoin: miter; stroke-linecap: square"/>
   </g>
   <g id="patch_4">
    <path d="M 453.224062 223.134828 
L 453.224062 57.828 
" style="fill: none; stroke: #000000; stroke-width: 0.8; stroke-linejoin: miter; stroke-linecap: square"/>
   </g>
   <g id="patch_5">
    <path d="M 50.466406 223.134828 
L 453.224063 223.134828 
" style="fill: none; stroke: #000000; stroke-width: 0.8; stroke-linejoin: miter; stroke-linecap: square"/>
   </g>
   <g id="patch_6">
    <path d="M 50.466406 57.828 
L 453.224063 57.828 
" style="fill: none; stroke: #000000; stroke-width: 0.8; stroke-linejoin: miter; stroke-linecap: square"/>
   </g>
   <g id="text_8">
    <!-- Semantics rises to the last layer -->
    <g transform="translate(50.466406 51.828) scale(0.1 -0.1)">
     <defs>
      <path id="DejaVuSans-36" d="M 3425 4513 
L 3425 3897 
Q 3066 4069 2747 4153 
Q 2428 4238 2131 4238 
Q 1616 4238 1336 4038 
Q 1056 3838 1056 3469 
Q 1056 3159 1242 3001 
Q 1428 2844 1947 2747 
L 2328 2669 
Q 3034 2534 3370 2195 
Q 3706 1856 3706 1288 
Q 3706 609 3251 259 
Q 2797 -91 1919 -91 
Q 1588 -91 1214 -16 
Q 841 59 441 206 
L 441 856 
Q 825 641 1194 531 
Q 1563 422 1919 422 
Q 2459 422 2753 634 
Q 3047 847 3047 1241 
Q 3047 1584 2836 1778 
Q 2625 1972 2144 2069 
L 1759 2144 
Q 1053 2284 737 2584 
Q 422 2884 422 3419 
Q 422 4038 858 4394 
Q 1294 4750 2059 4750 
Q 2388 4750 2728 4690 
Q 3069 4631 3425 4513 
z
" transform="scale(0.015625)"/>
      <path id="DejaVuSans-55" d="M 2631 2963 
Q 2534 3019 2420 3045 
Q 2306 3072 2169 3072 
Q 1681 3072 1420 2755 
Q 1159 2438 1159 1844 
L 1159 0 
L 581 0 
L 581 3500 
L 1159 3500 
L 1159 2956 
Q 1341 3275 1631 3429 
Q 1922 3584 2338 3584 
Q 2397 3584 2469 3576 
Q 2541 3569 2628 3553 
L 2631 2963 
z
" transform="scale(0.015625)"/>
      <path id="DejaVuSans-4b" d="M 3513 2113 
L 3513 0 
L 2938 0 
L 2938 2094 
Q 2938 2591 2744 2837 
Q 2550 3084 2163 3084 
Q 1697 3084 1428 2787 
Q 1159 2491 1159 1978 
L 1159 0 
L 581 0 
L 581 4863 
L 1159 4863 
L 1159 2956 
Q 1366 3272 1645 3428 
Q 1925 3584 2291 3584 
Q 2894 3584 3203 3211 
Q 3513 2838 3513 2113 
z
" transform="scale(0.015625)"/>
      <path id="DejaVuSans-4f" d="M 603 4863 
L 1178 4863 
L 1178 0 
L 603 0 
L 603 4863 
z
" transform="scale(0.015625)"/>
      <path id="DejaVuSans-5c" d="M 2059 -325 
Q 1816 -950 1584 -1140 
Q 1353 -1331 966 -1331 
L 506 -1331 
L 506 -850 
L 844 -850 
Q 1081 -850 1212 -737 
Q 1344 -625 1503 -206 
L 1606 56 
L 191 3500 
L 800 3500 
L 1894 763 
L 2988 3500 
L 3597 3500 
L 2059 -325 
z
" transform="scale(0.015625)"/>
     </defs>
     <use xlink:href="#DejaVuSans-36"/>
     <use xlink:href="#DejaVuSans-48" transform="translate(63.484375 0)"/>
     <use xlink:href="#DejaVuSans-50" transform="translate(125.015625 0)"/>
     <use xlink:href="#DejaVuSans-44" transform="translate(222.421875 0)"/>
     <use xlink:href="#DejaVuSans-51" transform="translate(283.703125 0)"/>
     <use xlink:href="#DejaVuSans-57" transform="translate(347.078125 0)"/>
     <use xlink:href="#DejaVuSans-4c" transform="translate(386.28125 0)"/>
     <use xlink:href="#DejaVuSans-46" transform="translate(414.0625 0)"/>
     <use xlink:href="#DejaVuSans-56" transform="translate(469.046875 0)"/>
     <use xlink:href="#DejaVuSans-3" transform="translate(521.140625 0)"/>
     <use xlink:href="#DejaVuSans-55" transform="translate(552.921875 0)"/>
     <use xlink:href="#DejaVuSans-4c" transform="translate(594.03125 0)"/>
     <use xlink:href="#DejaVuSans-56" transform="translate(621.8125 0)"/>
     <use xlink:href="#DejaVuSans-48" transform="translate(673.90625 0)"/>
     <use xlink:href="#DejaVuSans-56" transform="translate(735.4375 0)"/>
     <use xlink:href="#DejaVuSans-3" transform="translate(787.53125 0)"/>
     <use xlink:href="#DejaVuSans-57" transform="translate(819.3125 0)"/>
     <use xlink:href="#DejaVuSans-52" transform="translate(858.515625 0)"/>
     <use xlink:href="#DejaVuSans-3" transform="translate(919.703125 0)"/>
     <use xlink:href="#DejaVuSans-57" transform="translate(951.484375 0)"/>
     <use xlink:href="#DejaVuSans-4b" transform="translate(990.6875 0)"/>
     <use xlink:href="#DejaVuSans-48" transform="translate(1054.0625 0)"/>
     <use xlink:href="#DejaVuSans-3" transform="translate(1115.59375 0)"/>
     <use xlink:href="#DejaVuSans-4f" transform="translate(1147.375 0)"/>
     <use xlink:href="#DejaVuSans-44" transform="translate(1175.15625 0)"/>
     <use xlink:href="#DejaVuSans-56" transform="translate(1236.4375 0)"/>
     <use xlink:href="#DejaVuSans-57" transform="translate(1288.53125 0)"/>
     <use xlink:href="#DejaVuSans-3" transform="translate(1327.734375 0)"/>
     <use xlink:href="#DejaVuSans-4f" transform="translate(1359.515625 0)"/>
     <use xlink:href="#DejaVuSans-44" transform="translate(1387.296875 0)"/>
     <use xlink:href="#DejaVuSans-5c" transform="translate(1448.578125 0)"/>
     <use xlink:href="#DejaVuSans-48" transform="translate(1507.765625 0)"/>
     <use xlink:href="#DejaVuSans-55" transform="translate(1569.296875 0)"/>
    </g>
   </g>
   <g id="legend_1">
    <g id="patch_7">
     <path d="M 212.289062 219.134828 
L 447.624062 219.134828 
Q 449.224062 219.134828 449.224062 217.534828 
L 449.224062 194.333578 
Q 449.224062 192.733578 447.624062 192.733578 
L 212.289062 192.733578 
Q 210.689063 192.733578 210.689063 194.333578 
L 210.689063 217.534828 
Q 210.689063 219.134828 212.289062 219.134828 
z
" style="fill: #ffffff; opacity: 0.8; stroke: #cccccc; stroke-linejoin: miter"/>
    </g>
    <g id="line2d_29">
     <path d="M 213.889062 199.212328 
L 221.889062 199.212328 
L 229.889062 199.212328 
" style="fill: none; stroke: #1f77b4; stroke-width: 1.5; stroke-linecap: square"/>
     <g>
      <use xlink:href="#mdd8ecf881a" x="221.889062" y="199.212328" style="fill: #1f77b4; stroke: #1f77b4"/>
     </g>
    </g>
    <g id="text_9">
     <!-- dinov2 -->
     <g transform="translate(236.289062 202.012328) scale(0.08 -0.08)">
      <defs>
       <path id="DejaVuSans-47" d="M 2906 2969 
L 2906 4863 
L 3481 4863 
L 3481 0 
L 2906 0 
L 2906 525 
Q 2725 213 2448 61 
Q 2172 -91 1784 -91 
Q 1150 -91 751 415 
Q 353 922 353 1747 
Q 353 2572 751 3078 
Q 1150 3584 1784 3584 
Q 2172 3584 2448 3432 
Q 2725 3281 2906 2969 
z
M 947 1747 
Q 947 1113 1208 752 
Q 1469 391 1925 391 
Q 2381 391 2643 752 
Q 2906 1113 2906 1747 
Q 2906 2381 2643 2742 
Q 2381 3103 1925 3103 
Q 1469 3103 1208 2742 
Q 947 2381 947 1747 
z
" transform="scale(0.015625)"/>
       <path id="DejaVuSans-59" d="M 191 3500 
L 800 3500 
L 1894 563 
L 2988 3500 
L 3597 3500 
L 2284 0 
L 1503 0 
L 191 3500 
z
" transform="scale(0.015625)"/>
       <path id="DejaVuSans-15" d="M 1228 531 
L 3431 531 
L 3431 0 
L 469 0 
L 469 531 
Q 828 903 1448 1529 
Q 2069 2156 2228 2338 
Q 2531 2678 2651 2914 
Q 2772 3150 2772 3378 
Q 2772 3750 2511 3984 
Q 2250 4219 1831 4219 
Q 1534 4219 1204 4116 
Q 875 4013 500 3803 
L 500 4441 
Q 881 4594 1212 4672 
Q 1544 4750 1819 4750 
Q 2544 4750 2975 4387 
Q 3406 4025 3406 3419 
Q 3406 3131 3298 2873 
Q 3191 2616 2906 2266 
Q 2828 2175 2409 1742 
Q 1991 1309 1228 531 
z
" transform="scale(0.015625)"/>
      </defs>
      <use xlink:href="#DejaVuSans-47"/>
      <use xlink:href="#DejaVuSans-4c" transform="translate(63.484375 0)"/>
      <use xlink:href="#DejaVuSans-51" transform="translate(91.265625 0)"/>
      <use xlink:href="#DejaVuSans-52" transform="translate(154.640625 0)"/>
      <use xlink:href="#DejaVuSans-59" transform="translate(215.828125 0)"/>
      <use xlink:href="#DejaVuSans-15" transform="translate(275.015625 0)"/>
     </g>
    </g>
    <g id="line2d_30">
     <path d="M 213.889062 211.212953 
L 221.889062 211.212953 
L 229.889062 211.212953 
" style="fill: none; stroke: #ff7f0e; stroke-width: 1.5; stroke-linecap: square"/>
     <g>
      <use xlink:href="#ma8ee0bf064" x="221.889062" y="211.212953" style="fill: #ff7f0e; stroke: #ff7f0e"/>
     </g>
    </g>
    <g id="text_10">
     <!-- siglip2 -->
     <g transform="translate(236.289062 214.012953) scale(0.08 -0.08)">
      <defs>
       <path id="DejaVuSans-4a" d="M 2906 1791 
Q 2906 2416 2648 2759 
Q 2391 3103 1925 3103 
Q 1463 3103 1205 2759 
Q 947 2416 947 1791 
Q 947 1169 1205 825 
Q 1463 481 1925 481 
Q 2391 481 2648 825 
Q 2906 1169 2906 1791 
z
M 3481 434 
Q 3481 -459 3084 -895 
Q 2688 -1331 1869 -1331 
Q 1566 -1331 1297 -1286 
Q 1028 -1241 775 -1147 
L 775 -588 
Q 1028 -725 1275 -790 
Q 1522 -856 1778 -856 
Q 2344 -856 2625 -561 
Q 2906 -266 2906 331 
L 2906 616 
Q 2728 306 2450 153 
Q 2172 0 1784 0 
Q 1141 0 747 490 
Q 353 981 353 1791 
Q 353 2603 747 3093 
Q 1141 3584 1784 3584 
Q 2172 3584 2450 3431 
Q 2728 3278 2906 2969 
L 2906 3500 
L 3481 3500 
L 3481 434 
z
" transform="scale(0.015625)"/>
      </defs>
      <use xlink:href="#DejaVuSans-56"/>
      <use xlink:href="#DejaVuSans-4c" transform="translate(52.09375 0)"/>
      <use xlink:href="#DejaVuSans-4a" transform="translate(79.875 0)"/>
      <use xlink:href="#DejaVuSans-4f" transform="translate(143.359375 0)"/>
      <use xlink:href="#DejaVuSans-4c" transform="translate(171.140625 0)"/>
      <use xlink:href="#DejaVuSans-53" transform="translate(198.921875 0)"/>
      <use xlink:href="#DejaVuSans-15" transform="translate(262.40625 0)"/>
     </g>
    </g>
    <g id="line2d_31">
     <path d="M 279.380313 199.212328 
L 287.380313 199.212328 
L 295.380313 199.212328 
" style="fill: none; stroke: #2ca02c; stroke-width: 1.5; stroke-linecap: square"/>
     <g>
      <use xlink:href="#m7a697558b2" x="287.380313" y="199.212328" style="fill: #2ca02c; stroke: #2ca02c"/>
     </g>
    </g>
    <g id="text_11">
     <!-- muse_glimmer -->
     <g transform="translate(301.780312 202.012328) scale(0.08 -0.08)">
      <defs>
       <path id="DejaVuSans-58" d="M 544 1381 
L 544 3500 
L 1119 3500 
L 1119 1403 
Q 1119 906 1312 657 
Q 1506 409 1894 409 
Q 2359 409 2629 706 
Q 2900 1003 2900 1516 
L 2900 3500 
L 3475 3500 
L 3475 0 
L 2900 0 
L 2900 538 
Q 2691 219 2414 64 
Q 2138 -91 1772 -91 
Q 1169 -91 856 284 
Q 544 659 544 1381 
z
M 1991 3584 
L 1991 3584 
z
" transform="scale(0.015625)"/>
       <path id="DejaVuSans-42" d="M 3263 -1063 
L 3263 -1509 
L -63 -1509 
L -63 -1063 
L 3263 -1063 
z
" transform="scale(0.015625)"/>
      </defs>
      <use xlink:href="#DejaVuSans-50"/>
      <use xlink:href="#DejaVuSans-58" transform="translate(97.40625 0)"/>
      <use xlink:href="#DejaVuSans-56" transform="translate(160.78125 0)"/>
      <use xlink:href="#DejaVuSans-48" transform="translate(212.875 0)"/>
      <use xlink:href="#DejaVuSans-42" transform="translate(274.40625 0)"/>
      <use xlink:href="#DejaVuSans-4a" transform="translate(324.40625 0)"/>
      <use xlink:href="#DejaVuSans-4f" transform="translate(387.890625 0)"/>
      <use xlink:href="#DejaVuSans-4c" transform="translate(415.671875 0)"/>
      <use xlink:href="#DejaVuSans-50" transform="translate(443.453125 0)"/>
      <use xlink:href="#DejaVuSans-50" transform="translate(540.859375 0)"/>
      <use xlink:href="#DejaVuSans-48" transform="translate(638.265625 0)"/>
      <use xlink:href="#DejaVuSans-55" transform="translate(699.796875 0)"/>
     </g>
    </g>
    <g id="line2d_32">
     <path d="M 279.380313 211.212953 
L 287.380313 211.212953 
L 295.380313 211.212953 
" style="fill: none; stroke: #d62728; stroke-width: 1.5; stroke-linecap: square"/>
     <g>
      <use xlink:href="#m3aed71a4fc" x="287.380313" y="211.212953" style="fill: #d62728; stroke: #d62728"/>
     </g>
    </g>
    <g id="text_12">
     <!-- kimi_k26 -->
     <g transform="translate(301.780312 214.012953) scale(0.08 -0.08)">
      <defs>
       <path id="DejaVuSans-4e" d="M 581 4863 
L 1159 4863 
L 1159 1991 
L 2875 3500 
L 3609 3500 
L 1753 1863 
L 3688 0 
L 2938 0 
L 1159 1709 
L 1159 0 
L 581 0 
L 581 4863 
z
" transform="scale(0.015625)"/>
      </defs>
      <use xlink:href="#DejaVuSans-4e"/>
      <use xlink:href="#DejaVuSans-4c" transform="translate(57.90625 0)"/>
      <use xlink:href="#DejaVuSans-50" transform="translate(85.6875 0)"/>
      <use xlink:href="#DejaVuSans-4c" transform="translate(183.09375 0)"/>
      <use xlink:href="#DejaVuSans-42" transform="translate(210.875 0)"/>
      <use xlink:href="#DejaVuSans-4e" transform="translate(260.875 0)"/>
      <use xlink:href="#DejaVuSans-15" transform="translate(318.78125 0)"/>
      <use xlink:href="#DejaVuSans-19" transform="translate(382.40625 0)"/>
     </g>
    </g>
    <g id="line2d_33">
     <path d="M 377.052812 199.212328 
L 385.052812 199.212328 
L 393.052812 199.212328 
" style="fill: none; stroke: #9467bd; stroke-width: 1.5; stroke-linecap: square"/>
     <g>
      <use xlink:href="#m96917872d8" x="385.052812" y="199.212328" style="fill: #9467bd; stroke: #9467bd"/>
     </g>
    </g>
    <g id="text_13">
     <!-- qwen3_5 -->
     <g transform="translate(399.452812 202.012328) scale(0.08 -0.08)">
      <defs>
       <path id="DejaVuSans-54" d="M 947 1747 
Q 947 1113 1208 752 
Q 1469 391 1925 391 
Q 2381 391 2643 752 
Q 2906 1113 2906 1747 
Q 2906 2381 2643 2742 
Q 2381 3103 1925 3103 
Q 1469 3103 1208 2742 
Q 947 2381 947 1747 
z
M 2906 525 
Q 2725 213 2448 61 
Q 2172 -91 1784 -91 
Q 1150 -91 751 415 
Q 353 922 353 1747 
Q 353 2572 751 3078 
Q 1150 3584 1784 3584 
Q 2172 3584 2448 3432 
Q 2725 3281 2906 2969 
L 2906 3500 
L 3481 3500 
L 3481 -1331 
L 2906 -1331 
L 2906 525 
z
" transform="scale(0.015625)"/>
       <path id="DejaVuSans-5a" d="M 269 3500 
L 844 3500 
L 1563 769 
L 2278 3500 
L 2956 3500 
L 3675 769 
L 4391 3500 
L 4966 3500 
L 4050 0 
L 3372 0 
L 2619 2869 
L 1863 0 
L 1184 0 
L 269 3500 
z
" transform="scale(0.015625)"/>
       <path id="DejaVuSans-16" d="M 2597 2516 
Q 3050 2419 3304 2112 
Q 3559 1806 3559 1356 
Q 3559 666 3084 287 
Q 2609 -91 1734 -91 
Q 1441 -91 1130 -33 
Q 819 25 488 141 
L 488 750 
Q 750 597 1062 519 
Q 1375 441 1716 441 
Q 2309 441 2620 675 
Q 2931 909 2931 1356 
Q 2931 1769 2642 2001 
Q 2353 2234 1838 2234 
L 1294 2234 
L 1294 2753 
L 1863 2753 
Q 2328 2753 2575 2939 
Q 2822 3125 2822 3475 
Q 2822 3834 2567 4026 
Q 2313 4219 1838 4219 
Q 1578 4219 1281 4162 
Q 984 4106 628 3988 
L 628 4550 
Q 988 4650 1302 4700 
Q 1616 4750 1894 4750 
Q 2613 4750 3031 4423 
Q 3450 4097 3450 3541 
Q 3450 3153 3228 2886 
Q 3006 2619 2597 2516 
z
" transform="scale(0.015625)"/>
      </defs>
      <use xlink:href="#DejaVuSans-54"/>
      <use xlink:href="#DejaVuSans-5a" transform="translate(63.484375 0)"/>
      <use xlink:href="#DejaVuSans-48" transform="translate(145.265625 0)"/>
      <use xlink:href="#DejaVuSans-51" transform="translate(206.796875 0)"/>
      <use xlink:href="#DejaVuSans-16" transform="translate(270.171875 0)"/>
      <use xlink:href="#DejaVuSans-42" transform="translate(333.796875 0)"/>
      <use xlink:href="#DejaVuSans-18" transform="translate(383.796875 0)"/>
     </g>
    </g>
    <g id="line2d_34">
     <path d="M 377.052812 211.212953 
L 385.052812 211.212953 
L 393.052812 211.212953 
" style="fill: none; stroke: #8c564b; stroke-width: 1.5; stroke-linecap: square"/>
     <g>
      <use xlink:href="#m09eeabdeb5" x="385.052812" y="211.212953" style="fill: #8c564b; stroke: #8c564b"/>
     </g>
    </g>
    <g id="text_14">
     <!-- moonvit_v2 -->
     <g transform="translate(399.452812 214.012953) scale(0.08 -0.08)">
      <use xlink:href="#DejaVuSans-50"/>
      <use xlink:href="#DejaVuSans-52" transform="translate(97.40625 0)"/>
      <use xlink:href="#DejaVuSans-52" transform="translate(158.59375 0)"/>
      <use xlink:href="#DejaVuSans-51" transform="translate(219.78125 0)"/>
      <use xlink:href="#DejaVuSans-59" transform="translate(283.15625 0)"/>
      <use xlink:href="#DejaVuSans-4c" transform="translate(342.34375 0)"/>
      <use xlink:href="#DejaVuSans-57" transform="translate(370.125 0)"/>
      <use xlink:href="#DejaVuSans-42" transform="translate(409.328125 0)"/>
      <use xlink:href="#DejaVuSans-59" transform="translate(459.328125 0)"/>
      <use xlink:href="#DejaVuSans-15" transform="translate(518.515625 0)"/>
     </g>
    </g>
   </g>
  </g>
  <g id="axes_2">
   <g id="patch_8">
    <path d="M 50.466406 416.661656 
L 453.224062 416.661656 
L 453.224062 251.354828 
L 50.466406 251.354828 
z
" style="fill: #ffffff"/>
   </g>
   <g id="matplotlib.axis_3">
    <g id="xtick_6">
     <g id="line2d_35">
      <path d="M 105.392024 416.661656 
L 105.392024 251.354828 
" clip-path="url(#pc3ad292396)" style="fill: none; stroke: #b0b0b0; stroke-opacity: 0.25; stroke-width: 0.8; stroke-linecap: square"/>
     </g>
     <g id="line2d_36">
      <g>
       <use xlink:href="#mf0be2b28b9" x="105.392024" y="416.661656" style="stroke: #000000; stroke-width: 0.8"/>
      </g>
     </g>
     <g id="text_15">
      <!-- 0.2 -->
      <g transform="translate(97.440461 431.259312) scale(0.1 -0.1)">
       <use xlink:href="#DejaVuSans-13"/>
       <use xlink:href="#DejaVuSans-11" transform="translate(63.625 0)"/>
       <use xlink:href="#DejaVuSans-15" transform="translate(95.40625 0)"/>
      </g>
     </g>
    </g>
    <g id="xtick_7">
     <g id="line2d_37">
      <path d="M 187.773242 416.661656 
L 187.773242 251.354828 
" clip-path="url(#pc3ad292396)" style="fill: none; stroke: #b0b0b0; stroke-opacity: 0.25; stroke-width: 0.8; stroke-linecap: square"/>
     </g>
     <g id="line2d_38">
      <g>
       <use xlink:href="#mf0be2b28b9" x="187.773242" y="416.661656" style="stroke: #000000; stroke-width: 0.8"/>
      </g>
     </g>
     <g id="text_16">
      <!-- 0.4 -->
      <g transform="translate(179.821679 431.259312) scale(0.1 -0.1)">
       <use xlink:href="#DejaVuSans-13"/>
       <use xlink:href="#DejaVuSans-11" transform="translate(63.625 0)"/>
       <use xlink:href="#DejaVuSans-17" transform="translate(95.40625 0)"/>
      </g>
     </g>
    </g>
    <g id="xtick_8">
     <g id="line2d_39">
      <path d="M 270.15446 416.661656 
L 270.15446 251.354828 
" clip-path="url(#pc3ad292396)" style="fill: none; stroke: #b0b0b0; stroke-opacity: 0.25; stroke-width: 0.8; stroke-linecap: square"/>
     </g>
     <g id="line2d_40">
      <g>
       <use xlink:href="#mf0be2b28b9" x="270.15446" y="416.661656" style="stroke: #000000; stroke-width: 0.8"/>
      </g>
     </g>
     <g id="text_17">
      <!-- 0.6 -->
      <g transform="translate(262.202898 431.259312) scale(0.1 -0.1)">
       <use xlink:href="#DejaVuSans-13"/>
       <use xlink:href="#DejaVuSans-11" transform="translate(63.625 0)"/>
       <use xlink:href="#DejaVuSans-19" transform="translate(95.40625 0)"/>
      </g>
     </g>
    </g>
    <g id="xtick_9">
     <g id="line2d_41">
      <path d="M 352.535678 416.661656 
L 352.535678 251.354828 
" clip-path="url(#pc3ad292396)" style="fill: none; stroke: #b0b0b0; stroke-opacity: 0.25; stroke-width: 0.8; stroke-linecap: square"/>
     </g>
     <g id="line2d_42">
      <g>
       <use xlink:href="#mf0be2b28b9" x="352.535678" y="416.661656" style="stroke: #000000; stroke-width: 0.8"/>
      </g>
     </g>
     <g id="text_18">
      <!-- 0.8 -->
      <g transform="translate(344.584116 431.259312) scale(0.1 -0.1)">
       <use xlink:href="#DejaVuSans-13"/>
       <use xlink:href="#DejaVuSans-11" transform="translate(63.625 0)"/>
       <use xlink:href="#DejaVuSans-1b" transform="translate(95.40625 0)"/>
      </g>
     </g>
    </g>
    <g id="xtick_10">
     <g id="line2d_43">
      <path d="M 434.916896 416.661656 
L 434.916896 251.354828 
" clip-path="url(#pc3ad292396)" style="fill: none; stroke: #b0b0b0; stroke-opacity: 0.25; stroke-width: 0.8; stroke-linecap: square"/>
     </g>
     <g id="line2d_44">
      <g>
       <use xlink:href="#mf0be2b28b9" x="434.916896" y="416.661656" style="stroke: #000000; stroke-width: 0.8"/>
      </g>
     </g>
     <g id="text_19">
      <!-- 1.0 -->
      <g transform="translate(426.965334 431.259312) scale(0.1 -0.1)">
       <use xlink:href="#DejaVuSans-14"/>
       <use xlink:href="#DejaVuSans-11" transform="translate(63.625 0)"/>
       <use xlink:href="#DejaVuSans-13" transform="translate(95.40625 0)"/>
      </g>
     </g>
    </g>
    <g id="text_20">
     <!-- Relative Depth -->
     <g transform="translate(214.861641 445.260094) scale(0.1 -0.1)">
      <defs>
       <path id="DejaVuSans-35" d="M 2841 2188 
Q 3044 2119 3236 1894 
Q 3428 1669 3622 1275 
L 4263 0 
L 3584 0 
L 2988 1197 
Q 2756 1666 2539 1819 
Q 2322 1972 1947 1972 
L 1259 1972 
L 1259 0 
L 628 0 
L 628 4666 
L 2053 4666 
Q 2853 4666 3247 4331 
Q 3641 3997 3641 3322 
Q 3641 2881 3436 2590 
Q 3231 2300 2841 2188 
z
M 1259 4147 
L 1259 2491 
L 2053 2491 
Q 2509 2491 2742 2702 
Q 2975 2913 2975 3322 
Q 2975 3731 2742 3939 
Q 2509 4147 2053 4147 
L 1259 4147 
z
" transform="scale(0.015625)"/>
       <path id="DejaVuSans-27" d="M 1259 4147 
L 1259 519 
L 2022 519 
Q 2988 519 3436 956 
Q 3884 1394 3884 2338 
Q 3884 3275 3436 3711 
Q 2988 4147 2022 4147 
L 1259 4147 
z
M 628 4666 
L 1925 4666 
Q 3281 4666 3915 4102 
Q 4550 3538 4550 2338 
Q 4550 1131 3912 565 
Q 3275 0 1925 0 
L 628 0 
L 628 4666 
z
" transform="scale(0.015625)"/>
      </defs>
      <use xlink:href="#DejaVuSans-35"/>
      <use xlink:href="#DejaVuSans-48" transform="translate(65 0)"/>
      <use xlink:href="#DejaVuSans-4f" transform="translate(126.53125 0)"/>
      <use xlink:href="#DejaVuSans-44" transform="translate(154.3125 0)"/>
      <use xlink:href="#DejaVuSans-57" transform="translate(215.59375 0)"/>
      <use xlink:href="#DejaVuSans-4c" transform="translate(254.796875 0)"/>
      <use xlink:href="#DejaVuSans-59" transform="translate(282.578125 0)"/>
      <use xlink:href="#DejaVuSans-48" transform="translate(341.765625 0)"/>
      <use xlink:href="#DejaVuSans-3" transform="translate(403.296875 0)"/>
      <use xlink:href="#DejaVuSans-27" transform="translate(435.078125 0)"/>
      <use xlink:href="#DejaVuSans-48" transform="translate(512.078125 0)"/>
      <use xlink:href="#DejaVuSans-53" transform="translate(573.609375 0)"/>
      <use xlink:href="#DejaVuSans-57" transform="translate(637.09375 0)"/>
      <use xlink:href="#DejaVuSans-4b" transform="translate(676.296875 0)"/>
     </g>
    </g>
   </g>
   <g id="matplotlib.axis_4">
    <g id="ytick_7">
     <g id="line2d_45">
      <path d="M 50.466406 401.574598 
L 453.224062 401.574598 
" clip-path="url(#pc3ad292396)" style="fill: none; stroke: #b0b0b0; stroke-opacity: 0.25; stroke-width: 0.8; stroke-linecap: square"/>
     </g>
     <g id="line2d_46">
      <g>
       <use xlink:href="#mce1901239e" x="50.466406" y="401.574598" style="stroke: #000000; stroke-width: 0.8"/>
      </g>
     </g>
     <g id="text_21">
      <!-- 0.40 -->
      <g transform="translate(21.200781 405.373426) scale(0.1 -0.1)">
       <use xlink:href="#DejaVuSans-13"/>
       <use xlink:href="#DejaVuSans-11" transform="translate(63.625 0)"/>
       <use xlink:href="#DejaVuSans-17" transform="translate(95.40625 0)"/>
       <use xlink:href="#DejaVuSans-13" transform="translate(159.03125 0)"/>
      </g>
     </g>
    </g>
    <g id="ytick_8">
     <g id="line2d_47">
      <path d="M 50.466406 377.908624 
L 453.224062 377.908624 
" clip-path="url(#pc3ad292396)" style="fill: none; stroke: #b0b0b0; stroke-opacity: 0.25; stroke-width: 0.8; stroke-linecap: square"/>
     </g>
     <g id="line2d_48">
      <g>
       <use xlink:href="#mce1901239e" x="50.466406" y="377.908624" style="stroke: #000000; stroke-width: 0.8"/>
      </g>
     </g>
     <g id="text_22">
      <!-- 0.45 -->
      <g transform="translate(21.200781 381.707452) scale(0.1 -0.1)">
       <use xlink:href="#DejaVuSans-13"/>
       <use xlink:href="#DejaVuSans-11" transform="translate(63.625 0)"/>
       <use xlink:href="#DejaVuSans-17" transform="translate(95.40625 0)"/>
       <use xlink:href="#DejaVuSans-18" transform="translate(159.03125 0)"/>
      </g>
     </g>
    </g>
    <g id="ytick_9">
     <g id="line2d_49">
      <path d="M 50.466406 354.24265 
L 453.224062 354.24265 
" clip-path="url(#pc3ad292396)" style="fill: none; stroke: #b0b0b0; stroke-opacity: 0.25; stroke-width: 0.8; stroke-linecap: square"/>
     </g>
     <g id="line2d_50">
      <g>
       <use xlink:href="#mce1901239e" x="50.466406" y="354.24265" style="stroke: #000000; stroke-width: 0.8"/>
      </g>
     </g>
     <g id="text_23">
      <!-- 0.50 -->
      <g transform="translate(21.200781 358.041478) scale(0.1 -0.1)">
       <use xlink:href="#DejaVuSans-13"/>
       <use xlink:href="#DejaVuSans-11" transform="translate(63.625 0)"/>
       <use xlink:href="#DejaVuSans-18" transform="translate(95.40625 0)"/>
       <use xlink:href="#DejaVuSans-13" transform="translate(159.03125 0)"/>
      </g>
     </g>
    </g>
    <g id="ytick_10">
     <g id="line2d_51">
      <path d="M 50.466406 330.576676 
L 453.224062 330.576676 
" clip-path="url(#pc3ad292396)" style="fill: none; stroke: #b0b0b0; stroke-opacity: 0.25; stroke-width: 0.8; stroke-linecap: square"/>
     </g>
     <g id="line2d_52">
      <g>
       <use xlink:href="#mce1901239e" x="50.466406" y="330.576676" style="stroke: #000000; stroke-width: 0.8"/>
      </g>
     </g>
     <g id="text_24">
      <!-- 0.55 -->
      <g transform="translate(21.200781 334.375504) scale(0.1 -0.1)">
       <use xlink:href="#DejaVuSans-13"/>
       <use xlink:href="#DejaVuSans-11" transform="translate(63.625 0)"/>
       <use xlink:href="#DejaVuSans-18" transform="translate(95.40625 0)"/>
       <use xlink:href="#DejaVuSans-18" transform="translate(159.03125 0)"/>
      </g>
     </g>
    </g>
    <g id="ytick_11">
     <g id="line2d_53">
      <path d="M 50.466406 306.910702 
L 453.224062 306.910702 
" clip-path="url(#pc3ad292396)" style="fill: none; stroke: #b0b0b0; stroke-opacity: 0.25; stroke-width: 0.8; stroke-linecap: square"/>
     </g>
     <g id="line2d_54">
      <g>
       <use xlink:href="#mce1901239e" x="50.466406" y="306.910702" style="stroke: #000000; stroke-width: 0.8"/>
      </g>
     </g>
     <g id="text_25">
      <!-- 0.60 -->
      <g transform="translate(21.200781 310.70953) scale(0.1 -0.1)">
       <use xlink:href="#DejaVuSans-13"/>
       <use xlink:href="#DejaVuSans-11" transform="translate(63.625 0)"/>
       <use xlink:href="#DejaVuSans-19" transform="translate(95.40625 0)"/>
       <use xlink:href="#DejaVuSans-13" transform="translate(159.03125 0)"/>
      </g>
     </g>
    </g>
    <g id="ytick_12">
     <g id="line2d_55">
      <path d="M 50.466406 283.244728 
L 453.224062 283.244728 
" clip-path="url(#pc3ad292396)" style="fill: none; stroke: #b0b0b0; stroke-opacity: 0.25; stroke-width: 0.8; stroke-linecap: square"/>
     </g>
     <g id="line2d_56">
      <g>
       <use xlink:href="#mce1901239e" x="50.466406" y="283.244728" style="stroke: #000000; stroke-width: 0.8"/>
      </g>
     </g>
     <g id="text_26">
      <!-- 0.65 -->
      <g transform="translate(21.200781 287.043556) scale(0.1 -0.1)">
       <use xlink:href="#DejaVuSans-13"/>
       <use xlink:href="#DejaVuSans-11" transform="translate(63.625 0)"/>
       <use xlink:href="#DejaVuSans-19" transform="translate(95.40625 0)"/>
       <use xlink:href="#DejaVuSans-18" transform="translate(159.03125 0)"/>
      </g>
     </g>
    </g>
    <g id="ytick_13">
     <g id="line2d_57">
      <path d="M 50.466406 259.578754 
L 453.224062 259.578754 
" clip-path="url(#pc3ad292396)" style="fill: none; stroke: #b0b0b0; stroke-opacity: 0.25; stroke-width: 0.8; stroke-linecap: square"/>
     </g>
     <g id="line2d_58">
      <g>
       <use xlink:href="#mce1901239e" x="50.466406" y="259.578754" style="stroke: #000000; stroke-width: 0.8"/>
      </g>
     </g>
     <g id="text_27">
      <!-- 0.70 -->
      <g transform="translate(21.200781 263.377582) scale(0.1 -0.1)">
       <use xlink:href="#DejaVuSans-13"/>
       <use xlink:href="#DejaVuSans-11" transform="translate(63.625 0)"/>
       <use xlink:href="#DejaVuSans-1a" transform="translate(95.40625 0)"/>
       <use xlink:href="#DejaVuSans-13" transform="translate(159.03125 0)"/>
      </g>
     </g>
    </g>
    <g id="text_28">
     <!-- DIODE depth (d1) -->
     <g transform="translate(14.798438 378.267617) rotate(-90) scale(0.1 -0.1)">
      <defs>
       <path id="DejaVuSans-2c" d="M 628 4666 
L 1259 4666 
L 1259 0 
L 628 0 
L 628 4666 
z
" transform="scale(0.015625)"/>
       <path id="DejaVuSans-32" d="M 2522 4238 
Q 1834 4238 1429 3725 
Q 1025 3213 1025 2328 
Q 1025 1447 1429 934 
Q 1834 422 2522 422 
Q 3209 422 3611 934 
Q 4013 1447 4013 2328 
Q 4013 3213 3611 3725 
Q 3209 4238 2522 4238 
z
M 2522 4750 
Q 3503 4750 4090 4092 
Q 4678 3434 4678 2328 
Q 4678 1225 4090 567 
Q 3503 -91 2522 -91 
Q 1538 -91 948 565 
Q 359 1222 359 2328 
Q 359 3434 948 4092 
Q 1538 4750 2522 4750 
z
" transform="scale(0.015625)"/>
       <path id="DejaVuSans-28" d="M 628 4666 
L 3578 4666 
L 3578 4134 
L 1259 4134 
L 1259 2753 
L 3481 2753 
L 3481 2222 
L 1259 2222 
L 1259 531 
L 3634 531 
L 3634 0 
L 628 0 
L 628 4666 
z
" transform="scale(0.015625)"/>
       <path id="DejaVuSans-b" d="M 1984 4856 
Q 1566 4138 1362 3434 
Q 1159 2731 1159 2009 
Q 1159 1288 1364 580 
Q 1569 -128 1984 -844 
L 1484 -844 
Q 1016 -109 783 600 
Q 550 1309 550 2009 
Q 550 2706 781 3412 
Q 1013 4119 1484 4856 
L 1984 4856 
z
" transform="scale(0.015625)"/>
       <path id="DejaVuSans-c" d="M 513 4856 
L 1013 4856 
Q 1481 4119 1714 3412 
Q 1947 2706 1947 2009 
Q 1947 1309 1714 600 
Q 1481 -109 1013 -844 
L 513 -844 
Q 928 -128 1133 580 
Q 1338 1288 1338 2009 
Q 1338 2731 1133 3434 
Q 928 4138 513 4856 
z
" transform="scale(0.015625)"/>
      </defs>
      <use xlink:href="#DejaVuSans-27"/>
      <use xlink:href="#DejaVuSans-2c" transform="translate(77 0)"/>
      <use xlink:href="#DejaVuSans-32" transform="translate(106.5 0)"/>
      <use xlink:href="#DejaVuSans-27" transform="translate(185.21875 0)"/>
      <use xlink:href="#DejaVuSans-28" transform="translate(262.21875 0)"/>
      <use xlink:href="#DejaVuSans-3" transform="translate(325.40625 0)"/>
      <use xlink:href="#DejaVuSans-47" transform="translate(357.1875 0)"/>
      <use xlink:href="#DejaVuSans-48" transform="translate(420.671875 0)"/>
      <use xlink:href="#DejaVuSans-53" transform="translate(482.203125 0)"/>
      <use xlink:href="#DejaVuSans-57" transform="translate(545.6875 0)"/>
      <use xlink:href="#DejaVuSans-4b" transform="translate(584.890625 0)"/>
      <use xlink:href="#DejaVuSans-3" transform="translate(648.265625 0)"/>
      <use xlink:href="#DejaVuSans-b" transform="translate(680.046875 0)"/>
      <use xlink:href="#DejaVuSans-47" transform="translate(719.0625 0)"/>
      <use xlink:href="#DejaVuSans-14" transform="translate(782.546875 0)"/>
      <use xlink:href="#DejaVuSans-c" transform="translate(846.171875 0)"/>
     </g>
    </g>
   </g>
   <g id="line2d_59">
    <path d="M 74.499067 374.784715 
L 125.987328 363.803703 
L 177.47559 336.682497 
L 228.963851 287.504603 
L 280.452112 274.204326 
L 331.940374 261.614028 
L 383.428635 258.868775 
L 434.916896 270.985754 
" clip-path="url(#pc3ad292396)" style="fill: none; stroke: #1f77b4; stroke-width: 1.5; stroke-linecap: square"/>
    <g clip-path="url(#pc3ad292396)">
     <use xlink:href="#mdd8ecf881a" x="74.499067" y="374.784715" style="fill: #1f77b4; stroke: #1f77b4"/>
     <use xlink:href="#mdd8ecf881a" x="125.987328" y="363.803703" style="fill: #1f77b4; stroke: #1f77b4"/>
     <use xlink:href="#mdd8ecf881a" x="177.47559" y="336.682497" style="fill: #1f77b4; stroke: #1f77b4"/>
     <use xlink:href="#mdd8ecf881a" x="228.963851" y="287.504603" style="fill: #1f77b4; stroke: #1f77b4"/>
     <use xlink:href="#mdd8ecf881a" x="280.452112" y="274.204326" style="fill: #1f77b4; stroke: #1f77b4"/>
     <use xlink:href="#mdd8ecf881a" x="331.940374" y="261.614028" style="fill: #1f77b4; stroke: #1f77b4"/>
     <use xlink:href="#mdd8ecf881a" x="383.428635" y="258.868775" style="fill: #1f77b4; stroke: #1f77b4"/>
     <use xlink:href="#mdd8ecf881a" x="434.916896" y="270.985754" style="fill: #1f77b4; stroke: #1f77b4"/>
    </g>
   </g>
   <g id="line2d_60">
    <defs>
     <path id="m1acbd716f1" d="M 0 -5.5 
L -1.234827 -1.699593 
L -5.230811 -1.699593 
L -1.997992 0.649187 
L -3.232819 4.449593 
L -0 2.100813 
L 3.232819 4.449593 
L 1.997992 0.649187 
L 5.230811 -1.699593 
L 1.234827 -1.699593 
z
" style="stroke: #000000; stroke-opacity: 0; stroke-linejoin: bevel"/>
    </defs>
    <g clip-path="url(#pc3ad292396)">
     <use xlink:href="#m1acbd716f1" x="383.428635" y="258.868775" style="fill: #1f77b4; stroke: #000000; stroke-opacity: 0; stroke-linejoin: bevel"/>
    </g>
   </g>
   <g id="line2d_61">
    <path d="M 68.778149 362.809732 
L 129.801274 302.461499 
L 175.568617 283.765379 
L 236.591742 275.150965 
L 282.359085 273.683675 
L 328.126428 279.032185 
L 389.149553 290.533848 
L 434.916896 309.845283 
" clip-path="url(#pc3ad292396)" style="fill: none; stroke: #ff7f0e; stroke-width: 1.5; stroke-linecap: square"/>
    <g clip-path="url(#pc3ad292396)">
     <use xlink:href="#ma8ee0bf064" x="68.778149" y="362.809732" style="fill: #ff7f0e; stroke: #ff7f0e"/>
     <use xlink:href="#ma8ee0bf064" x="129.801274" y="302.461499" style="fill: #ff7f0e; stroke: #ff7f0e"/>
     <use xlink:href="#ma8ee0bf064" x="175.568617" y="283.765379" style="fill: #ff7f0e; stroke: #ff7f0e"/>
     <use xlink:href="#ma8ee0bf064" x="236.591742" y="275.150965" style="fill: #ff7f0e; stroke: #ff7f0e"/>
     <use xlink:href="#ma8ee0bf064" x="282.359085" y="273.683675" style="fill: #ff7f0e; stroke: #ff7f0e"/>
     <use xlink:href="#ma8ee0bf064" x="328.126428" y="279.032185" style="fill: #ff7f0e; stroke: #ff7f0e"/>
     <use xlink:href="#ma8ee0bf064" x="389.149553" y="290.533848" style="fill: #ff7f0e; stroke: #ff7f0e"/>
     <use xlink:href="#ma8ee0bf064" x="434.916896" y="309.845283" style="fill: #ff7f0e; stroke: #ff7f0e"/>
    </g>
   </g>
   <g id="line2d_62">
    <defs>
     <path id="mea74aeffb5" d="M 0 -5.5 
L -1.234827 -1.699593 
L -5.230811 -1.699593 
L -1.997992 0.649187 
L -3.232819 4.449593 
L -0 2.100813 
L 3.232819 4.449593 
L 1.997992 0.649187 
L 5.230811 -1.699593 
L 1.234827 -1.699593 
z
" style="stroke: #000000; stroke-opacity: 0; stroke-linejoin: bevel"/>
    </defs>
    <g clip-path="url(#pc3ad292396)">
     <use xlink:href="#mea74aeffb5" x="282.359085" y="273.683675" style="fill: #ff7f0e; stroke: #000000; stroke-opacity: 0; stroke-linejoin: bevel"/>
    </g>
   </g>
   <g id="line2d_63">
    <path d="M 72.439537 390.262262 
L 121.868268 376.725325 
L 179.53512 343.640294 
L 228.963851 308.235997 
L 278.392582 286.084645 
L 336.059435 279.079517 
L 385.488165 290.628512 
L 434.916896 337.155817 
" clip-path="url(#pc3ad292396)" style="fill: none; stroke: #2ca02c; stroke-width: 1.5; stroke-linecap: square"/>
    <g clip-path="url(#pc3ad292396)">
     <use xlink:href="#m7a697558b2" x="72.439537" y="390.262262" style="fill: #2ca02c; stroke: #2ca02c"/>
     <use xlink:href="#m7a697558b2" x="121.868268" y="376.725325" style="fill: #2ca02c; stroke: #2ca02c"/>
     <use xlink:href="#m7a697558b2" x="179.53512" y="343.640294" style="fill: #2ca02c; stroke: #2ca02c"/>
     <use xlink:href="#m7a697558b2" x="228.963851" y="308.235997" style="fill: #2ca02c; stroke: #2ca02c"/>
     <use xlink:href="#m7a697558b2" x="278.392582" y="286.084645" style="fill: #2ca02c; stroke: #2ca02c"/>
     <use xlink:href="#m7a697558b2" x="336.059435" y="279.079517" style="fill: #2ca02c; stroke: #2ca02c"/>
     <use xlink:href="#m7a697558b2" x="385.488165" y="290.628512" style="fill: #2ca02c; stroke: #2ca02c"/>
     <use xlink:href="#m7a697558b2" x="434.916896" y="337.155817" style="fill: #2ca02c; stroke: #2ca02c"/>
    </g>
   </g>
   <g id="line2d_64">
    <defs>
     <path id="mdf15ed9345" d="M 0 -5.5 
L -1.234827 -1.699593 
L -5.230811 -1.699593 
L -1.997992 0.649187 
L -3.232819 4.449593 
L -0 2.100813 
L 3.232819 4.449593 
L 1.997992 0.649187 
L 5.230811 -1.699593 
L 1.234827 -1.699593 
z
" style="stroke: #000000; stroke-opacity: 0; stroke-linejoin: bevel"/>
    </defs>
    <g clip-path="url(#pc3ad292396)">
     <use xlink:href="#mdf15ed9345" x="336.059435" y="279.079517" style="fill: #2ca02c; stroke: #000000; stroke-opacity: 0; stroke-linejoin: bevel"/>
    </g>
   </g>
   <g id="line2d_65">
    <path d="M 68.778149 409.14771 
L 129.801274 328.068083 
L 175.568617 299.479586 
L 236.591742 278.748193 
L 282.359085 284.664686 
L 328.126428 283.765379 
L 389.149553 284.096703 
L 434.916896 306.816038 
" clip-path="url(#pc3ad292396)" style="fill: none; stroke: #d62728; stroke-width: 1.5; stroke-linecap: square"/>
    <g clip-path="url(#pc3ad292396)">
     <use xlink:href="#m3aed71a4fc" x="68.778149" y="409.14771" style="fill: #d62728; stroke: #d62728"/>
     <use xlink:href="#m3aed71a4fc" x="129.801274" y="328.068083" style="fill: #d62728; stroke: #d62728"/>
     <use xlink:href="#m3aed71a4fc" x="175.568617" y="299.479586" style="fill: #d62728; stroke: #d62728"/>
     <use xlink:href="#m3aed71a4fc" x="236.591742" y="278.748193" style="fill: #d62728; stroke: #d62728"/>
     <use xlink:href="#m3aed71a4fc" x="282.359085" y="284.664686" style="fill: #d62728; stroke: #d62728"/>
     <use xlink:href="#m3aed71a4fc" x="328.126428" y="283.765379" style="fill: #d62728; stroke: #d62728"/>
     <use xlink:href="#m3aed71a4fc" x="389.149553" y="284.096703" style="fill: #d62728; stroke: #d62728"/>
     <use xlink:href="#m3aed71a4fc" x="434.916896" y="306.816038" style="fill: #d62728; stroke: #d62728"/>
    </g>
   </g>
   <g id="line2d_66">
    <defs>
     <path id="mfbbfdbe2da" d="M 0 -5.5 
L -1.234827 -1.699593 
L -5.230811 -1.699593 
L -1.997992 0.649187 
L -3.232819 4.449593 
L -0 2.100813 
L 3.232819 4.449593 
L 1.997992 0.649187 
L 5.230811 -1.699593 
L 1.234827 -1.699593 
z
" style="stroke: #000000; stroke-opacity: 0; stroke-linejoin: bevel"/>
    </defs>
    <g clip-path="url(#pc3ad292396)">
     <use xlink:href="#mfbbfdbe2da" x="236.591742" y="278.748193" style="fill: #d62728; stroke: #000000; stroke-opacity: 0; stroke-linejoin: bevel"/>
    </g>
   </g>
   <g id="line2d_67">
    <path d="M 68.778149 358.360529 
L 129.801274 304.92276 
L 175.568617 287.788595 
L 236.591742 278.653529 
L 282.359085 272.074388 
L 328.126428 276.428928 
L 389.149553 288.782566 
L 434.916896 339.380418 
" clip-path="url(#pc3ad292396)" style="fill: none; stroke: #9467bd; stroke-width: 1.5; stroke-linecap: square"/>
    <g clip-path="url(#pc3ad292396)">
     <use xlink:href="#m96917872d8" x="68.778149" y="358.360529" style="fill: #9467bd; stroke: #9467bd"/>
     <use xlink:href="#m96917872d8" x="129.801274" y="304.92276" style="fill: #9467bd; stroke: #9467bd"/>
     <use xlink:href="#m96917872d8" x="175.568617" y="287.788595" style="fill: #9467bd; stroke: #9467bd"/>
     <use xlink:href="#m96917872d8" x="236.591742" y="278.653529" style="fill: #9467bd; stroke: #9467bd"/>
     <use xlink:href="#m96917872d8" x="282.359085" y="272.074388" style="fill: #9467bd; stroke: #9467bd"/>
     <use xlink:href="#m96917872d8" x="328.126428" y="276.428928" style="fill: #9467bd; stroke: #9467bd"/>
     <use xlink:href="#m96917872d8" x="389.149553" y="288.782566" style="fill: #9467bd; stroke: #9467bd"/>
     <use xlink:href="#m96917872d8" x="434.916896" y="339.380418" style="fill: #9467bd; stroke: #9467bd"/>
    </g>
   </g>
   <g id="line2d_68">
    <defs>
     <path id="m71295859d3" d="M 0 -5.5 
L -1.234827 -1.699593 
L -5.230811 -1.699593 
L -1.997992 0.649187 
L -3.232819 4.449593 
L -0 2.100813 
L 3.232819 4.449593 
L 1.997992 0.649187 
L 5.230811 -1.699593 
L 1.234827 -1.699593 
z
" style="stroke: #000000; stroke-opacity: 0; stroke-linejoin: bevel"/>
    </defs>
    <g clip-path="url(#pc3ad292396)">
     <use xlink:href="#m71295859d3" x="282.359085" y="272.074388" style="fill: #9467bd; stroke: #000000; stroke-opacity: 0; stroke-linejoin: bevel"/>
    </g>
   </g>
   <g id="line2d_69">
    <path d="M 68.778149 396.557411 
L 129.801274 342.267667 
L 175.568617 315.572448 
L 236.591742 298.012296 
L 282.359085 281.067458 
L 328.126428 292.379794 
L 389.149553 306.768706 
L 434.916896 336.303842 
" clip-path="url(#pc3ad292396)" style="fill: none; stroke: #8c564b; stroke-width: 1.5; stroke-linecap: square"/>
    <g clip-path="url(#pc3ad292396)">
     <use xlink:href="#m09eeabdeb5" x="68.778149" y="396.557411" style="fill: #8c564b; stroke: #8c564b"/>
     <use xlink:href="#m09eeabdeb5" x="129.801274" y="342.267667" style="fill: #8c564b; stroke: #8c564b"/>
     <use xlink:href="#m09eeabdeb5" x="175.568617" y="315.572448" style="fill: #8c564b; stroke: #8c564b"/>
     <use xlink:href="#m09eeabdeb5" x="236.591742" y="298.012296" style="fill: #8c564b; stroke: #8c564b"/>
     <use xlink:href="#m09eeabdeb5" x="282.359085" y="281.067458" style="fill: #8c564b; stroke: #8c564b"/>
     <use xlink:href="#m09eeabdeb5" x="328.126428" y="292.379794" style="fill: #8c564b; stroke: #8c564b"/>
     <use xlink:href="#m09eeabdeb5" x="389.149553" y="306.768706" style="fill: #8c564b; stroke: #8c564b"/>
     <use xlink:href="#m09eeabdeb5" x="434.916896" y="336.303842" style="fill: #8c564b; stroke: #8c564b"/>
    </g>
   </g>
   <g id="line2d_70">
    <defs>
     <path id="m12b944a9b8" d="M 0 -5.5 
L -1.234827 -1.699593 
L -5.230811 -1.699593 
L -1.997992 0.649187 
L -3.232819 4.449593 
L -0 2.100813 
L 3.232819 4.449593 
L 1.997992 0.649187 
L 5.230811 -1.699593 
L 1.234827 -1.699593 
z
" style="stroke: #000000; stroke-opacity: 0; stroke-linejoin: bevel"/>
    </defs>
    <g clip-path="url(#pc3ad292396)">
     <use xlink:href="#m12b944a9b8" x="282.359085" y="281.067458" style="fill: #8c564b; stroke: #000000; stroke-opacity: 0; stroke-linejoin: bevel"/>
    </g>
   </g>
   <g id="patch_9">
    <path d="M 50.466406 416.661656 
L 50.466406 251.354828 
" style="fill: none; stroke: #000000; stroke-width: 0.8; stroke-linejoin: miter; stroke-linecap: square"/>
   </g>
   <g id="patch_10">
    <path d="M 453.224062 416.661656 
L 453.224062 251.354828 
" style="fill: none; stroke: #000000; stroke-width: 0.8; stroke-linejoin: miter; stroke-linecap: square"/>
   </g>
   <g id="patch_11">
    <path d="M 50.466406 416.661656 
L 453.224063 416.661656 
" style="fill: none; stroke: #000000; stroke-width: 0.8; stroke-linejoin: miter; stroke-linecap: square"/>
   </g>
   <g id="patch_12">
    <path d="M 50.466406 251.354828 
L 453.224063 251.354828 
" style="fill: none; stroke: #000000; stroke-width: 0.8; stroke-linejoin: miter; stroke-linecap: square"/>
   </g>
   <g id="text_29">
    <!-- Geometry peaks earlier; stars mark each Tower's peak -->
    <g transform="translate(50.466406 245.354828) scale(0.1 -0.1)">
     <defs>
      <path id="DejaVuSans-2a" d="M 3809 666 
L 3809 1919 
L 2778 1919 
L 2778 2438 
L 4434 2438 
L 4434 434 
Q 4069 175 3628 42 
Q 3188 -91 2688 -91 
Q 1594 -91 976 548 
Q 359 1188 359 2328 
Q 359 3472 976 4111 
Q 1594 4750 2688 4750 
Q 3144 4750 3555 4637 
Q 3966 4525 4313 4306 
L 4313 3634 
Q 3963 3931 3569 4081 
Q 3175 4231 2741 4231 
Q 1884 4231 1454 3753 
Q 1025 3275 1025 2328 
Q 1025 1384 1454 906 
Q 1884 428 2741 428 
Q 3075 428 3337 486 
Q 3600 544 3809 666 
z
" transform="scale(0.015625)"/>
      <path id="DejaVuSans-1e" d="M 750 3309 
L 1409 3309 
L 1409 2516 
L 750 2516 
L 750 3309 
z
M 750 794 
L 1409 794 
L 1409 256 
L 897 -744 
L 494 -744 
L 750 256 
L 750 794 
z
" transform="scale(0.015625)"/>
      <path id="DejaVuSans-37" d="M -19 4666 
L 3928 4666 
L 3928 4134 
L 2272 4134 
L 2272 0 
L 1638 0 
L 1638 4134 
L -19 4134 
L -19 4666 
z
" transform="scale(0.015625)"/>
      <path id="DejaVuSans-a" d="M 1147 4666 
L 1147 2931 
L 616 2931 
L 616 4666 
L 1147 4666 
z
" transform="scale(0.015625)"/>
     </defs>
     <use xlink:href="#DejaVuSans-2a"/>
     <use xlink:href="#DejaVuSans-48" transform="translate(77.484375 0)"/>
     <use xlink:href="#DejaVuSans-52" transform="translate(139.015625 0)"/>
     <use xlink:href="#DejaVuSans-50" transform="translate(200.203125 0)"/>
     <use xlink:href="#DejaVuSans-48" transform="translate(297.609375 0)"/>
     <use xlink:href="#DejaVuSans-57" transform="translate(359.140625 0)"/>
     <use xlink:href="#DejaVuSans-55" transform="translate(398.34375 0)"/>
     <use xlink:href="#DejaVuSans-5c" transform="translate(439.453125 0)"/>
     <use xlink:href="#DejaVuSans-3" transform="translate(498.640625 0)"/>
     <use xlink:href="#DejaVuSans-53" transform="translate(530.421875 0)"/>
     <use xlink:href="#DejaVuSans-48" transform="translate(593.90625 0)"/>
     <use xlink:href="#DejaVuSans-44" transform="translate(655.4375 0)"/>
     <use xlink:href="#DejaVuSans-4e" transform="translate(716.71875 0)"/>
     <use xlink:href="#DejaVuSans-56" transform="translate(774.625 0)"/>
     <use xlink:href="#DejaVuSans-3" transform="translate(826.71875 0)"/>
     <use xlink:href="#DejaVuSans-48" transform="translate(858.5 0)"/>
     <use xlink:href="#DejaVuSans-44" transform="translate(920.03125 0)"/>
     <use xlink:href="#DejaVuSans-55" transform="translate(981.3125 0)"/>
     <use xlink:href="#DejaVuSans-4f" transform="translate(1022.421875 0)"/>
     <use xlink:href="#DejaVuSans-4c" transform="translate(1050.203125 0)"/>
     <use xlink:href="#DejaVuSans-48" transform="translate(1077.984375 0)"/>
     <use xlink:href="#DejaVuSans-55" transform="translate(1139.515625 0)"/>
     <use xlink:href="#DejaVuSans-1e" transform="translate(1180.625 0)"/>
     <use xlink:href="#DejaVuSans-3" transform="translate(1214.3125 0)"/>
     <use xlink:href="#DejaVuSans-56" transform="translate(1246.09375 0)"/>
     <use xlink:href="#DejaVuSans-57" transform="translate(1298.1875 0)"/>
     <use xlink:href="#DejaVuSans-44" transform="translate(1337.390625 0)"/>
     <use xlink:href="#DejaVuSans-55" transform="translate(1398.671875 0)"/>
     <use xlink:href="#DejaVuSans-56" transform="translate(1439.78125 0)"/>
     <use xlink:href="#DejaVuSans-3" transform="translate(1491.875 0)"/>
     <use xlink:href="#DejaVuSans-50" transform="translate(1523.65625 0)"/>
     <use xlink:href="#DejaVuSans-44" transform="translate(1621.0625 0)"/>
     <use xlink:href="#DejaVuSans-55" transform="translate(1682.34375 0)"/>
     <use xlink:href="#DejaVuSans-4e" transform="translate(1723.453125 0)"/>
     <use xlink:href="#DejaVuSans-3" transform="translate(1781.359375 0)"/>
     <use xlink:href="#DejaVuSans-48" transform="translate(1813.140625 0)"/>
     <use xlink:href="#DejaVuSans-44" transform="translate(1874.671875 0)"/>
     <use xlink:href="#DejaVuSans-46" transform="translate(1935.953125 0)"/>
     <use xlink:href="#DejaVuSans-4b" transform="translate(1990.9375 0)"/>
     <use xlink:href="#DejaVuSans-3" transform="translate(2054.3125 0)"/>
     <use xlink:href="#DejaVuSans-37" transform="translate(2086.09375 0)"/>
     <use xlink:href="#DejaVuSans-52" transform="translate(2130.1875 0)"/>
     <use xlink:href="#DejaVuSans-5a" transform="translate(2191.375 0)"/>
     <use xlink:href="#DejaVuSans-48" transform="translate(2273.15625 0)"/>
     <use xlink:href="#DejaVuSans-55" transform="translate(2334.6875 0)"/>
     <use xlink:href="#DejaVuSans-a" transform="translate(2375.796875 0)"/>
     <use xlink:href="#DejaVuSans-56" transform="translate(2403.28125 0)"/>
     <use xlink:href="#DejaVuSans-3" transform="translate(2455.375 0)"/>
     <use xlink:href="#DejaVuSans-53" transform="translate(2487.15625 0)"/>
     <use xlink:href="#DejaVuSans-48" transform="translate(2550.640625 0)"/>
     <use xlink:href="#DejaVuSans-44" transform="translate(2612.171875 0)"/>
     <use xlink:href="#DejaVuSans-4e" transform="translate(2673.453125 0)"/>
    </g>
   </g>
  </g>
  <g id="text_30">
   <!-- Hypothesis 1, capacity-matched Tower Stage -->
   <g transform="translate(111.68168 15.178359) scale(0.105 -0.105)">
    <defs>
     <path id="DejaVuSans-2b" d="M 628 4666 
L 1259 4666 
L 1259 2753 
L 3553 2753 
L 3553 4666 
L 4184 4666 
L 4184 0 
L 3553 0 
L 3553 2222 
L 1259 2222 
L 1259 0 
L 628 0 
L 628 4666 
z
" transform="scale(0.015625)"/>
     <path id="DejaVuSans-f" d="M 750 794 
L 1409 794 
L 1409 256 
L 897 -744 
L 494 -744 
L 750 256 
L 750 794 
z
" transform="scale(0.015625)"/>
    </defs>
    <use xlink:href="#DejaVuSans-2b"/>
    <use xlink:href="#DejaVuSans-5c" transform="translate(75.203125 0)"/>
    <use xlink:href="#DejaVuSans-53" transform="translate(134.390625 0)"/>
    <use xlink:href="#DejaVuSans-52" transform="translate(197.875 0)"/>
    <use xlink:href="#DejaVuSans-57" transform="translate(259.0625 0)"/>
    <use xlink:href="#DejaVuSans-4b" transform="translate(298.265625 0)"/>
    <use xlink:href="#DejaVuSans-48" transform="translate(361.640625 0)"/>
    <use xlink:href="#DejaVuSans-56" transform="translate(423.171875 0)"/>
    <use xlink:href="#DejaVuSans-4c" transform="translate(475.265625 0)"/>
    <use xlink:href="#DejaVuSans-56" transform="translate(503.046875 0)"/>
    <use xlink:href="#DejaVuSans-3" transform="translate(555.140625 0)"/>
    <use xlink:href="#DejaVuSans-14" transform="translate(586.921875 0)"/>
    <use xlink:href="#DejaVuSans-f" transform="translate(650.546875 0)"/>
    <use xlink:href="#DejaVuSans-3" transform="translate(682.328125 0)"/>
    <use xlink:href="#DejaVuSans-46" transform="translate(714.109375 0)"/>
    <use xlink:href="#DejaVuSans-44" transform="translate(769.09375 0)"/>
    <use xlink:href="#DejaVuSans-53" transform="translate(830.375 0)"/>
    <use xlink:href="#DejaVuSans-44" transform="translate(893.859375 0)"/>
    <use xlink:href="#DejaVuSans-46" transform="translate(955.140625 0)"/>
    <use xlink:href="#DejaVuSans-4c" transform="translate(1010.125 0)"/>
    <use xlink:href="#DejaVuSans-57" transform="translate(1037.90625 0)"/>
    <use xlink:href="#DejaVuSans-5c" transform="translate(1077.109375 0)"/>
    <use xlink:href="#DejaVuSans-10" transform="translate(1134.546875 0)"/>
    <use xlink:href="#DejaVuSans-50" transform="translate(1170.625 0)"/>
    <use xlink:href="#DejaVuSans-44" transform="translate(1268.03125 0)"/>
    <use xlink:href="#DejaVuSans-57" transform="translate(1329.3125 0)"/>
    <use xlink:href="#DejaVuSans-46" transform="translate(1368.515625 0)"/>
    <use xlink:href="#DejaVuSans-4b" transform="translate(1423.5 0)"/>
    <use xlink:href="#DejaVuSans-48" transform="translate(1486.875 0)"/>
    <use xlink:href="#DejaVuSans-47" transform="translate(1548.40625 0)"/>
    <use xlink:href="#DejaVuSans-3" transform="translate(1611.890625 0)"/>
    <use xlink:href="#DejaVuSans-37" transform="translate(1643.671875 0)"/>
    <use xlink:href="#DejaVuSans-52" transform="translate(1687.765625 0)"/>
    <use xlink:href="#DejaVuSans-5a" transform="translate(1748.953125 0)"/>
    <use xlink:href="#DejaVuSans-48" transform="translate(1830.734375 0)"/>
    <use xlink:href="#DejaVuSans-55" transform="translate(1892.265625 0)"/>
    <use xlink:href="#DejaVuSans-3" transform="translate(1933.375 0)"/>
    <use xlink:href="#DejaVuSans-36" transform="translate(1965.15625 0)"/>
    <use xlink:href="#DejaVuSans-57" transform="translate(2028.640625 0)"/>
    <use xlink:href="#DejaVuSans-44" transform="translate(2067.84375 0)"/>
    <use xlink:href="#DejaVuSans-4a" transform="translate(2129.125 0)"/>
    <use xlink:href="#DejaVuSans-48" transform="translate(2192.609375 0)"/>
   </g>
  </g>
 </g>
 <defs>
  <clipPath id="pe6f7fbaafa">
   <rect x="50.466406" y="57.828" width="402.757656" height="165.306828"/>
  </clipPath>
  <clipPath id="pc3ad292396">
   <rect x="50.466406" y="251.354828" width="402.757656" height="165.306828"/>
  </clipPath>
 </defs>
</svg>
